<svg width="100" height="100" viewBox="0 0 100 100" fill="none" xmlns="http://www.w3.org/2000/svg">
<path fill-rule="evenodd" clip-rule="evenodd" d="M11.5015 81.498C7.80246 81.498 4.57996 79.4845 2.84996 76.498C1.96671 78.0163 1.50143 79.7415 1.50146 81.498C1.50146 87.021 5.97847 91.498 11.5015 91.498H21.5015V81.498H11.5015Z" fill="white"/>
<path fill-rule="evenodd" clip-rule="evenodd" d="M96.5015 78.998C96.392 78.998 96.2875 79.0165 96.182 79.03C96.163 78.955 96.145 78.8796 96.124 78.8046C96.6568 78.5818 97.096 78.1814 97.3671 77.6714C97.6381 77.1615 97.7243 76.5734 97.6109 76.0072C97.4975 75.4409 97.1916 74.9314 96.745 74.5651C96.2985 74.1989 95.739 73.9985 95.1615 73.998C94.6155 74 94.0854 74.1821 93.6535 74.516C93.5981 74.4595 93.5423 74.4035 93.486 74.348C93.8126 73.9185 93.9901 73.3941 93.9915 72.8545C93.9911 72.2785 93.7919 71.7203 93.4275 71.2743C93.063 70.8282 92.5557 70.5217 91.9914 70.4065C91.427 70.2913 90.8402 70.3746 90.3301 70.6421C89.82 70.9097 89.418 71.3452 89.192 71.875C89.118 71.854 89.0435 71.8366 88.9695 71.8176C88.983 71.7121 89.0015 71.6075 89.0015 71.498C89.0015 70.835 88.7381 70.1991 88.2692 69.7303C87.8004 69.2614 87.1645 68.998 86.5015 68.998C85.8384 68.998 85.2025 69.2614 84.7337 69.7303C84.2649 70.1991 84.0015 70.835 84.0015 71.498C84.0015 71.6075 84.02 71.7121 84.0335 71.8176C83.9595 71.8366 83.885 71.854 83.811 71.875C83.5858 71.3442 83.1839 70.9076 82.6735 70.6393C82.1632 70.3709 81.5757 70.2873 81.0108 70.4026C80.4458 70.5179 79.9381 70.825 79.5737 71.2719C79.2093 71.7188 79.0107 72.2779 79.0115 72.8545C79.0115 73.417 79.2035 73.93 79.517 74.348C77.6585 76.164 76.5015 78.6945 76.5015 81.498C76.5015 87.021 80.9785 91.498 86.5015 91.498C91.171 91.498 95.0815 88.293 96.182 83.966C96.2875 83.9795 96.392 83.998 96.5015 83.998C97.1645 83.998 97.8004 83.7347 98.2692 83.2658C98.7381 82.797 99.0015 82.1611 99.0015 81.498C99.0015 80.835 98.7381 80.1991 98.2692 79.7303C97.8004 79.2614 97.1645 78.998 96.5015 78.998" fill="white"/>
<path fill-rule="evenodd" clip-rule="evenodd" d="M96.5015 57.7532C96.833 57.7532 97.1509 57.6215 97.3853 57.3871C97.6198 57.1527 97.7515 56.8348 97.7515 56.5032C97.7515 56.1717 97.6198 55.8538 97.3853 55.6194C97.1509 55.3849 96.833 55.2532 96.5015 55.2532C96.447 55.2532 96.3945 55.2627 96.342 55.2692C96.332 55.2317 96.3235 55.1942 96.313 55.1567C96.579 55.045 96.7983 54.8447 96.9335 54.5898C97.0688 54.3349 97.1117 54.0411 97.055 53.7581C96.9983 53.4752 96.8455 53.2205 96.6225 53.0374C96.3995 52.8542 96.12 52.7538 95.8315 52.7532C95.547 52.7532 95.2875 52.8517 95.0775 53.0122C95.05 52.9837 95.022 52.9557 94.9935 52.9282C95.1505 52.7197 95.2465 52.4627 95.2465 52.1812C95.2464 51.8932 95.1468 51.6139 94.9645 51.3908C94.7823 51.1677 94.5285 51.0144 94.2463 50.9569C93.964 50.8993 93.6705 50.941 93.4154 51.0749C93.1604 51.2088 92.9594 51.4267 92.8465 51.6917C92.4088 51.5679 91.9563 51.5045 91.5015 51.5032C88.7405 51.5032 86.5015 53.7422 86.5015 56.5032C86.5015 59.2642 88.7405 61.5032 91.5015 61.5032C91.9685 61.5032 92.418 61.4342 92.8465 61.3147C92.9594 61.5798 93.1604 61.7977 93.4154 61.9316C93.6705 62.0655 93.964 62.1072 94.2463 62.0496C94.5285 61.9921 94.7823 61.8388 94.9645 61.6156C95.1468 61.3925 95.2464 61.1133 95.2465 60.8252C95.2465 60.5437 95.1505 60.2867 94.9935 60.0782C95.022 60.0507 95.05 60.0227 95.0775 59.9942C95.2875 60.1547 95.547 60.2532 95.8315 60.2532C96.1204 60.2532 96.4003 60.1531 96.6237 59.97C96.8472 59.7869 97.0003 59.532 97.057 59.2488C97.1138 58.9655 97.0706 58.6714 96.935 58.4163C96.7994 58.1612 96.5795 57.961 96.313 57.8497C96.3235 57.8127 96.332 57.7747 96.342 57.7372C96.3945 57.7437 96.447 57.7532 96.5015 57.7532Z" fill="white"/>
<path fill-rule="evenodd" clip-rule="evenodd" d="M56.4906 28.6901L91.5006 26.5021V21.5021C91.5006 15.9791 87.0236 11.5021 81.5006 11.5021H36.5006L35.2506 9.33711C34.6946 8.37461 33.3061 8.37461 32.7506 9.33711L31.5006 11.5021L30.2506 9.33711C29.6951 8.37461 28.3061 8.37461 27.7506 9.33711L26.5006 11.5021L25.2506 9.33711C24.6951 8.37461 23.3061 8.37461 22.7506 9.33711L21.5006 11.5021C21.4952 11.5021 21.49 11.5025 21.4848 11.5028C21.4794 11.5032 21.474 11.5036 21.4681 11.5036L19.3971 9.43311C18.6121 8.64761 17.2711 9.00661 16.9831 10.0801L16.2986 12.6321L13.7026 11.9361C12.6286 11.6486 11.6471 12.6306 11.9351 13.7041L12.6301 16.3006L10.0791 16.9841C9.00514 17.2721 8.64564 18.6136 9.43114 19.3991L11.5021 21.4701C11.5021 21.4753 11.5018 21.4805 11.5014 21.4857C11.501 21.4911 11.5006 21.4965 11.5006 21.5021L9.33564 22.7521C8.37314 23.3076 8.37314 24.6966 9.33564 25.2521L11.5006 26.5021L9.33564 27.7521C8.37314 28.3076 8.37314 29.6966 9.33564 30.2521L11.5006 31.5021L9.33564 32.7521C8.37314 33.3076 8.37314 34.6966 9.33564 35.2521L11.5006 36.5021L9.33564 37.7521C8.37314 38.3076 8.37314 39.6966 9.33564 40.2521L11.5006 41.5021L9.33564 42.7521C8.37314 43.3076 8.37314 44.6966 9.33564 45.2521L11.5006 46.5021L9.33564 47.7521C8.37314 48.3076 8.37314 49.6966 9.33564 50.2521L11.5006 51.5021L9.33564 52.7521C8.37314 53.3076 8.37314 54.6966 9.33564 55.2521L11.5006 56.5021L9.33564 57.7521C8.37314 58.3076 8.37314 59.6966 9.33564 60.2521L11.5006 61.5021L9.33564 62.7521C8.37314 63.3076 8.37314 64.6966 9.33564 65.2521L11.5006 66.5021L9.33564 67.7521C8.37314 68.3076 8.37314 69.6966 9.33564 70.2521L11.5006 71.5021L9.33564 72.7521C8.37314 73.3076 8.37314 74.6966 9.33564 75.2521L11.5006 76.5021L9.33564 77.7521C8.37314 78.3076 8.37314 79.6966 9.33564 80.2521L11.5006 81.5021C11.5006 87.0251 15.9776 91.5021 21.5006 91.5021H81.5006C86.2929 91.5021 90.2977 88.1314 91.2734 83.6313C90.2961 88.1293 86.2923 91.498 81.5015 91.498H51.5015V56.498C51.5015 50.975 55.9785 46.498 61.5015 46.498H91.5006V41.5021L56.4906 39.3141C55.1393 39.2295 53.8709 38.6331 52.9438 37.6462C52.0168 36.6593 51.5007 35.3561 51.5006 34.0021C51.5006 31.1916 53.6856 28.8656 56.4906 28.6901ZM30.6176 27.3819C30.852 27.6164 31.1699 27.748 31.5015 27.748C31.833 27.748 32.1509 27.6164 32.3853 27.3819C32.6198 27.1475 32.7515 26.8296 32.7515 26.498C32.7515 23.0515 29.948 20.248 26.5015 20.248C23.055 20.248 20.2515 23.0515 20.2515 26.498C20.2515 26.8296 20.3832 27.1475 20.6176 27.3819C20.852 27.6164 21.1699 27.748 21.5015 27.748C21.833 27.748 22.1509 27.6164 22.3853 27.3819C22.6198 27.1475 22.7515 26.8296 22.7515 26.498C22.7515 24.43 24.4335 22.748 26.5015 22.748C28.5695 22.748 30.2515 24.43 30.2515 26.498C30.2515 26.8296 30.3832 27.1475 30.6176 27.3819Z" fill="white"/>
<path fill-rule="evenodd" clip-rule="evenodd" d="M84.0118 61.9998H58.9918C58.8592 61.9998 58.732 61.9471 58.6382 61.8533C58.5445 61.7596 58.4918 61.6324 58.4918 61.4998C58.4918 61.3672 58.5445 61.24 58.6382 61.1462C58.732 61.0525 58.8592 60.9998 58.9918 60.9998H84.0118C84.1444 60.9998 84.2716 61.0525 84.3653 61.1462C84.4591 61.24 84.5118 61.3672 84.5118 61.4998C84.5118 61.6324 84.4591 61.7596 84.3653 61.8533C84.2716 61.9471 84.1444 61.9998 84.0118 61.9998ZM84.0118 71.9998H58.9918C58.8592 71.9998 58.732 71.9471 58.6382 71.8533C58.5445 71.7596 58.4918 71.6324 58.4918 71.4998C58.4918 71.3672 58.5445 71.24 58.6382 71.1462C58.732 71.0525 58.8592 70.9998 58.9918 70.9998H84.0118C84.1444 70.9998 84.2716 71.0525 84.3653 71.1462C84.4591 71.24 84.5118 71.3672 84.5118 71.4998C84.5118 71.6324 84.4591 71.7596 84.3653 71.8533C84.2716 71.9471 84.1444 71.9998 84.0118 71.9998ZM84.0118 81.9998H58.9918C58.8592 81.9998 58.732 81.9471 58.6382 81.8534C58.5445 81.7596 58.4918 81.6324 58.4918 81.4998C58.4918 81.3672 58.5445 81.24 58.6382 81.1462C58.732 81.0525 58.8592 80.9998 58.9918 80.9998H84.0118C84.1444 80.9998 84.2716 81.0525 84.3653 81.1462C84.4591 81.24 84.5118 81.3672 84.5118 81.4998C84.5118 81.6324 84.4591 81.7596 84.3653 81.8534C84.2716 81.9471 84.1444 81.9998 84.0118 81.9998ZM84.0118 57.0928H58.9918C58.8592 57.0928 58.732 57.0401 58.6382 56.9463C58.5445 56.8526 58.4918 56.7254 58.4918 56.5928C58.4918 56.4602 58.5445 56.333 58.6382 56.2392C58.732 56.1455 58.8592 56.0928 58.9918 56.0928H84.0118C84.1444 56.0928 84.2716 56.1455 84.3653 56.2392C84.4591 56.333 84.5118 56.4602 84.5118 56.5928C84.5118 56.7254 84.4591 56.8526 84.3653 56.9463C84.2716 57.0401 84.1444 57.0928 84.0118 57.0928ZM84.0118 66.9998H58.9918C58.8592 66.9998 58.732 66.9471 58.6382 66.8533C58.5445 66.7596 58.4918 66.6324 58.4918 66.4998C58.4918 66.3672 58.5445 66.24 58.6382 66.1462C58.732 66.0525 58.8592 65.9998 58.9918 65.9998H84.0118C84.1444 65.9998 84.2716 66.0525 84.3653 66.1462C84.4591 66.24 84.5118 66.3672 84.5118 66.4998C84.5118 66.6324 84.4591 66.7596 84.3653 66.8533C84.2716 66.9471 84.1444 66.9998 84.0118 66.9998ZM84.0118 76.9998H58.9918C58.8592 76.9998 58.732 76.9471 58.6382 76.8533C58.5445 76.7596 58.4918 76.6324 58.4918 76.4998C58.4918 76.3672 58.5445 76.24 58.6382 76.1462C58.732 76.0525 58.8592 75.9998 58.9918 75.9998H84.0118C84.1444 75.9998 84.2716 76.0525 84.3653 76.1462C84.4591 76.24 84.5118 76.3672 84.5118 76.4998C84.5118 76.6324 84.4591 76.7596 84.3653 76.8533C84.2716 76.9471 84.1444 76.9998 84.0118 76.9998ZM91.5018 30.8053C91.4958 30.8053 91.4908 30.8023 91.4848 30.8028C89.9398 30.8553 89.2088 32.4008 88.5638 33.7643C87.8908 35.1893 87.3703 36.1158 86.5173 36.0878C85.5728 36.0538 85.0328 34.9868 84.4608 33.8578C83.8038 32.5608 83.0538 31.0898 81.4793 31.1448C79.9563 31.1968 79.2228 32.5418 78.5758 33.7283C77.8873 34.9923 77.4188 35.7608 76.5153 35.7253C75.5518 35.6903 75.0398 34.8228 74.4473 33.8188C73.7868 32.7008 73.0233 31.4438 71.4793 31.4868C69.9823 31.5383 69.2468 32.6793 68.5978 33.6868C67.9113 34.7518 67.4303 35.4008 66.5153 35.3623C65.5288 35.3273 65.0193 34.6073 64.4298 33.7738C63.7678 32.8373 63.0218 31.7773 61.4823 31.8288C60.0183 31.8788 59.2828 32.8138 58.6343 33.6378C58.0183 34.4198 57.5373 35.0388 56.5198 34.9998C56.3872 34.995 56.2581 35.0431 56.161 35.1335C56.0638 35.2239 56.0066 35.3492 56.0018 35.4818C55.997 35.6144 56.0451 35.7435 56.1355 35.8406C56.2259 35.9378 56.3512 35.995 56.4838 35.9998C57.9923 36.0503 58.7563 35.0998 59.4198 34.2563C60.0083 33.5083 60.5163 32.8628 61.5163 32.8288C62.4793 32.7878 62.9308 33.3863 63.6138 34.3513C64.2623 35.2683 64.9983 36.3083 66.4793 36.3618C68.0308 36.4138 68.7773 35.2543 69.4383 34.2283C70.0293 33.3113 70.5393 32.5198 71.5133 32.4863C72.4098 32.4528 72.8978 33.1613 73.5858 34.3268C74.2343 35.4253 74.9688 36.6698 76.4793 36.7248C78.0418 36.7788 78.7963 35.4148 79.4538 34.2073C80.0233 33.1633 80.5608 32.1773 81.5133 32.1443C82.4098 32.1233 82.8773 32.9418 83.5688 34.3093C84.2148 35.5858 84.9473 37.0318 86.4813 37.0873L86.5658 37.0888C88.0978 37.0888 88.8248 35.5513 89.4683 34.1918C90.0378 32.9868 90.5768 31.8518 91.5018 31.8053V30.8053V30.8053Z" fill="white"/>
<path fill-rule="evenodd" clip-rule="evenodd" d="M41.5015 91.498H61.5015V71.498H41.5015V91.498Z" fill="white"/>
<path fill-rule="evenodd" clip-rule="evenodd" d="M71.5015 78.998C71.392 78.998 71.2875 79.0165 71.182 79.03C71.163 78.955 71.145 78.8796 71.124 78.8046C71.6568 78.5818 72.096 78.1814 72.3671 77.6714C72.6381 77.1615 72.7243 76.5734 72.6109 76.0072C72.4975 75.4409 72.1916 74.9314 71.745 74.5651C71.2985 74.1989 70.739 73.9985 70.1615 73.998C69.6155 74 69.0854 74.1821 68.6535 74.516C68.5981 74.4595 68.5423 74.4035 68.486 74.348C68.8126 73.9185 68.9901 73.3941 68.9915 72.8545C68.9911 72.2785 68.7919 71.7203 68.4275 71.2743C68.063 70.8282 67.5557 70.5217 66.9914 70.4065C66.427 70.2913 65.8402 70.3746 65.3301 70.6421C64.82 70.9097 64.418 71.3452 64.192 71.875C64.118 71.854 64.0435 71.8366 63.9695 71.8176C63.983 71.7121 64.0015 71.6075 64.0015 71.498C64.0015 70.835 63.7381 70.1991 63.2692 69.7303C62.8004 69.2614 62.1645 68.998 61.5015 68.998C60.8384 68.998 60.2025 69.2614 59.7337 69.7303C59.2649 70.1991 59.0015 70.835 59.0015 71.498C59.0015 71.6075 59.02 71.7121 59.0335 71.8176C58.9595 71.8366 58.885 71.854 58.811 71.875C58.5858 71.3442 58.1839 70.9076 57.6735 70.6393C57.1632 70.3709 56.5757 70.2873 56.0108 70.4026C55.4458 70.5179 54.9381 70.825 54.5737 71.2719C54.2093 71.7188 54.0107 72.2779 54.0115 72.8545C54.0115 73.417 54.2035 73.93 54.517 74.348C52.6585 76.164 51.5015 78.6945 51.5015 81.498C51.5015 87.021 55.9785 91.498 61.5015 91.498C66.171 91.498 70.0815 88.293 71.182 83.966C71.2875 83.9795 71.392 83.998 71.5015 83.998C72.1645 83.998 72.8004 83.7347 73.2692 83.2658C73.7381 82.797 74.0015 82.1611 74.0015 81.498C74.0015 80.835 73.7381 80.1991 73.2692 79.7303C72.8004 79.2614 72.1645 78.998 71.5015 78.998" fill="white"/>
<path fill-rule="evenodd" clip-rule="evenodd" d="M41.5015 61.498H61.5015V51.498H41.5015V61.498Z" fill="white"/>
<path fill-rule="evenodd" clip-rule="evenodd" d="M66.5015 57.7532C66.833 57.7532 67.1509 57.6215 67.3853 57.3871C67.6198 57.1527 67.7515 56.8348 67.7515 56.5032C67.7515 56.1717 67.6198 55.8538 67.3853 55.6194C67.1509 55.3849 66.833 55.2532 66.5015 55.2532C66.447 55.2532 66.3945 55.2627 66.342 55.2692C66.332 55.2317 66.3235 55.1942 66.313 55.1567C66.579 55.045 66.7983 54.8447 66.9335 54.5898C67.0688 54.3349 67.1117 54.0411 67.055 53.7581C66.9983 53.4752 66.8455 53.2205 66.6225 53.0374C66.3995 52.8542 66.12 52.7538 65.8315 52.7532C65.547 52.7532 65.2875 52.8517 65.0775 53.0122C65.05 52.9837 65.022 52.9557 64.9935 52.9282C65.1505 52.7197 65.2465 52.4627 65.2465 52.1812C65.2464 51.8932 65.1468 51.6139 64.9645 51.3908C64.7823 51.1677 64.5285 51.0144 64.2463 50.9569C63.964 50.8993 63.6705 50.941 63.4154 51.0749C63.1604 51.2088 62.9594 51.4267 62.8465 51.6917C62.4088 51.5679 61.9563 51.5045 61.5015 51.5032C58.7405 51.5032 56.5015 53.7422 56.5015 56.5032C56.5015 59.2642 58.7405 61.5032 61.5015 61.5032C61.9685 61.5032 62.418 61.4342 62.8465 61.3147C62.9594 61.5798 63.1604 61.7977 63.4154 61.9316C63.6705 62.0655 63.964 62.1072 64.2463 62.0496C64.5285 61.9921 64.7823 61.8388 64.9645 61.6156C65.1468 61.3925 65.2464 61.1133 65.2465 60.8252C65.2465 60.5437 65.1505 60.2867 64.9935 60.0782C65.022 60.0507 65.05 60.0227 65.0775 59.9942C65.2875 60.1547 65.547 60.2532 65.8315 60.2532C66.1204 60.2532 66.4003 60.1531 66.6237 59.97C66.8472 59.7869 67.0003 59.532 67.057 59.2488C67.1138 58.9655 67.0706 58.6714 66.935 58.4163C66.7994 58.1612 66.5795 57.961 66.313 57.8497C66.3235 57.8127 66.332 57.7747 66.342 57.7372C66.3945 57.7437 66.447 57.7532 66.5015 57.7532Z" fill="white"/>
<path fill-rule="evenodd" clip-rule="evenodd" d="M71.5015 20.8743C71.4215 20.8743 71.3365 20.8643 71.2565 20.8493C71.176 20.8337 71.0973 20.8102 71.0215 20.7793C70.9465 20.7493 70.8765 20.7093 70.806 20.6643C70.741 20.6193 70.6765 20.5643 70.616 20.5093C70.5615 20.4493 70.5065 20.3893 70.4615 20.3193C70.4165 20.2493 70.3765 20.1793 70.346 20.1043C70.2846 19.9517 70.2525 19.7888 70.2515 19.6243C70.2515 19.5443 70.2615 19.4593 70.2765 19.3793C70.2915 19.2993 70.3165 19.2243 70.346 19.1443C70.3765 19.0693 70.4165 18.9993 70.4615 18.9293C70.5065 18.8643 70.5615 18.7993 70.616 18.7393C70.6765 18.6843 70.741 18.6293 70.806 18.5843C70.8765 18.5393 70.9465 18.4993 71.0215 18.4693C71.096 18.4393 71.1765 18.4143 71.2565 18.3993C71.4165 18.3643 71.5815 18.3643 71.7465 18.3993C71.826 18.4143 71.9065 18.4393 71.9815 18.4693C72.056 18.4993 72.1265 18.5393 72.1965 18.5843C72.2615 18.6293 72.326 18.6843 72.3865 18.7393C72.4415 18.7993 72.4965 18.8643 72.5415 18.9293C72.5865 18.9993 72.6265 19.0693 72.6565 19.1443C72.6865 19.2243 72.7115 19.2993 72.7265 19.3793C72.741 19.4593 72.7515 19.5443 72.7515 19.6243C72.7515 19.9543 72.616 20.2793 72.3865 20.5093C72.326 20.5643 72.2615 20.6193 72.1965 20.6643C72.1265 20.7093 72.056 20.7493 71.9815 20.7793C71.829 20.8415 71.6661 20.8737 71.5015 20.8743M81.5015 20.2493C81.1715 20.2493 80.8515 20.1143 80.616 19.8843C80.5604 19.8244 80.5088 19.7609 80.4615 19.6943C80.4165 19.6243 80.3765 19.5543 80.346 19.4793C80.2846 19.3267 80.2525 19.1638 80.2515 18.9993C80.2515 18.6693 80.3865 18.3493 80.616 18.1143C80.6765 18.0593 80.741 18.0043 80.806 17.9593C80.8765 17.9143 80.9465 17.8743 81.0215 17.8443C81.096 17.8143 81.1765 17.7893 81.2565 17.7743C81.4165 17.7393 81.5865 17.7393 81.7465 17.7743C81.826 17.7893 81.9065 17.8143 81.9815 17.8443C82.056 17.8743 82.1265 17.9143 82.1965 17.9593C82.2615 18.0043 82.326 18.0593 82.3865 18.1143C82.616 18.3493 82.7515 18.6693 82.7515 18.9993C82.7515 19.0793 82.741 19.1643 82.7265 19.2443C82.7115 19.3243 82.6865 19.4043 82.6565 19.4793C82.6215 19.5543 82.5865 19.6243 82.5415 19.6943C82.4965 19.7593 82.4415 19.8243 82.3865 19.8843C82.326 19.9393 82.2615 19.9943 82.1965 20.0393C82.1265 20.0843 82.056 20.1243 81.9815 20.1543C81.829 20.2165 81.6661 20.2487 81.5015 20.2493Z" fill="black"/>
</svg>
