<svg width="100" height="100" viewBox="0 0 100 100" fill="none" xmlns="http://www.w3.org/2000/svg">
<path d="M45.0113 74.404C46.5735 74.404 47.9795 75.6584 47.9795 77.3832C47.9795 78.9511 46.7297 80.3622 45.0113 80.3622C43.4491 80.3622 42.0431 79.1078 42.0431 77.3832C42.0431 75.6584 43.4491 74.404 45.0113 74.404ZM90.9395 56.2161C89.3772 56.2161 87.9712 54.9618 87.9712 53.237C87.9712 51.6691 89.2209 50.258 90.9395 50.258C92.5015 50.258 93.9075 51.5124 93.9075 53.237C93.9075 54.8051 92.5015 56.2161 90.9395 56.2161ZM90.9395 44.1431C85.9404 44.1431 81.8787 48.2197 81.8787 53.237C81.8787 54.1778 82.035 55.1187 82.3474 56.0593L52.5098 72.0522C50.7914 69.5434 47.9795 68.1324 45.0113 68.1324C41.5745 68.1324 38.4502 70.1707 36.8879 73.1497L10.0185 59.0384C7.20657 57.4705 5.01952 52.9236 5.33197 48.5333C5.48818 46.3382 6.26928 44.6135 7.36279 43.9864C8.14388 43.5159 8.92498 43.6728 10.0185 44.1431C17.2046 47.9061 40.6372 60.2927 41.5745 60.7632C43.1367 61.3902 43.9177 61.7038 46.5735 60.4495L94.6885 35.3627C95.4697 35.0491 96.2508 34.422 96.2508 33.3245C96.2508 31.9133 94.8448 31.2861 94.8448 31.2861C92.0329 30.0318 87.815 27.9934 83.7534 26.112C75.0052 22.0354 65.0072 17.3316 60.6332 14.9797C56.8839 12.9414 53.7595 14.6661 53.2908 14.9797C33.4512 25.0144 6.11305 38.4986 4.55087 39.4393C1.89516 41.0072 0.176769 44.2999 0.020561 48.3765C-0.291886 54.8051 2.9887 61.5471 7.67523 63.8989L36.1069 78.6375C36.7318 83.0277 40.6372 86.4771 45.0113 86.4771C50.0102 86.4771 53.9158 82.5572 54.072 77.5399L85.3156 60.6063C86.8777 61.8607 88.9086 62.4878 90.9395 62.4878C95.9384 62.4878 100 58.4112 100 53.3939C100 48.2197 95.9384 44.1431 90.9395 44.1431Z" fill="white"/>
</svg>
