<svg width="100" height="100" viewBox="0 0 100 100" fill="none" xmlns="http://www.w3.org/2000/svg">
<g clip-path="url(#clip0_3944_187315)">
<path fill-rule="evenodd" clip-rule="evenodd" d="M6.87162 33.4112C-2.29054 42.5734 -2.29054 57.4266 6.87162 66.5879L33.4116 93.129C42.5738 102.29 57.4269 102.29 66.5882 93.129L93.129 66.5879C102.29 57.4257 102.29 42.5725 93.129 33.4112L66.5882 6.87102C57.426 -2.29034 42.5729 -2.29034 33.4116 6.87102L6.87162 33.4112ZM61.6112 61.6118C68.0247 55.1983 68.0247 44.8009 61.6112 38.3882C55.1986 31.9746 44.8012 31.9746 38.3886 38.3882C31.9751 44.8017 31.9751 55.1983 38.3886 61.6118C44.8021 68.0245 55.1986 68.0245 61.6121 61.6118H61.6112Z" fill="white"/>
</g>
<defs>
<clipPath id="clip0_3944_187315">
<rect width="100" height="100" fill="white"/>
</clipPath>
</defs>
</svg>
