<svg width="100" height="100" viewBox="0 0 100 100" fill="none" xmlns="http://www.w3.org/2000/svg">
<path d="M97.4577 38H53.9419C53.035 38 52.2998 38.7163 52.2998 39.6V60.4C52.2998 61.2837 53.035 62 53.9419 62H97.4577C98.3646 62 99.0998 61.2837 99.0998 60.4V39.6C99.0998 38.7163 98.3646 38 97.4577 38Z" fill="white"/>
<path d="M59.5 44.3016V56.8983H63.563C66.8134 56.8983 68.89 54.2725 68.89 50.5112C68.89 46.821 66.9759 44.3016 63.5991 44.3016H59.5ZM63.4186 55.1596H61.7211V46.0403H63.4547C65.5674 46.0403 66.6147 47.8855 66.6147 50.5112C66.6147 53.1903 65.4951 55.1596 63.4186 55.1596ZM75.5915 57.2C78.8057 57.2 80.3768 54.9467 80.3768 51.2387V49.9613C80.3768 46.2532 78.8057 44 75.5915 44C72.3772 44 70.8062 46.2532 70.8062 49.9613V51.2387C70.8062 54.9467 72.3772 57.2 75.5915 57.2ZM75.5915 55.408C73.858 55.408 73.0815 54.1306 73.0815 51.2919V49.908C73.0815 47.0694 73.858 45.7919 75.5915 45.7919C77.325 45.7919 78.1015 47.0694 78.1015 49.908V51.2919C78.1015 54.1306 77.325 55.408 75.5915 55.408ZM87.1324 57.2C90.0939 57.2 91.701 55.3548 91.882 52.6935L89.6788 52.2854C89.5699 54.308 88.7397 55.3903 87.2227 55.3903C85.5253 55.3903 84.6947 53.9177 84.6947 51.1677V49.908C84.6947 47.1403 85.4892 45.8097 87.2227 45.8097C88.7217 45.8097 89.5699 46.9097 89.6788 48.8967L91.9 48.5597C91.665 45.4548 89.9858 44 87.2408 44C84.0265 44 82.4194 46.271 82.4194 49.9435V51.2564C82.4194 54.929 83.9723 57.2 87.1324 57.2Z" fill="black"/>
<path d="M7.20709 53.0761L8.15347 48.8169C8.32048 48.124 8.56172 46.8733 8.6545 46.1127H8.78439C8.72872 47.093 8.69161 48.5634 8.69161 49.5099V56H10.7328V44H7.85657L6.61328 49.4254C6.52049 49.9324 6.40915 50.5916 6.37204 50.9465H6.2607C6.22359 50.5916 6.11225 49.9324 6.01946 49.4254L4.77617 44H1.8999V56H3.94113V49.5099C3.94113 48.5634 3.90401 47.093 3.84834 46.1127H3.97824C4.08958 46.8733 4.31226 48.124 4.47927 48.8169L5.42565 53.0761H7.20709ZM20.2731 52.9409L21.2381 56H23.4833L19.5122 44H16.8772L12.9061 56H15.1515L16.0978 52.9409H20.2731ZM18.1577 45.724H18.2319C18.5288 47.1944 19.0112 48.986 19.7535 51.2676H16.6174C17.3597 48.986 17.8608 47.1944 18.1577 45.724ZM30.036 51.0817L32.6896 56H35.1947L32.2628 50.7268C33.8587 50.2366 34.7679 49.1043 34.7679 47.5831C34.7679 45.3015 33.1164 44 30.2216 44H25.7309V56H28.0134V51.0817H30.036ZM28.0134 49.5944V45.6057H30.0175C31.5577 45.6057 32.3741 46.3155 32.3741 47.6C32.3741 48.8845 31.5577 49.5944 30.0175 49.5944H28.0134ZM41.6917 50.1859L44.8649 56H47.4999L43.3804 48.7493L47.1103 44H44.4752L40.2258 49.6451V44H37.9433V56H40.2258V52.0451L41.6917 50.1859Z" fill="white"/>
</svg>
