<svg width="100" height="100" viewBox="0 0 100 100" fill="none" xmlns="http://www.w3.org/2000/svg">
<path d="M91.9766 21.3828H7.14844C4.51646 21.3828 2.38281 23.5165 2.38281 26.1484V72.8516C2.38281 75.4835 4.51646 77.6172 7.14844 77.6172H91.9766C94.6085 77.6172 96.7422 75.4835 96.7422 72.8516V26.1484C96.7422 23.5165 94.6085 21.3828 91.9766 21.3828Z" stroke="white" stroke-width="4.76562"/>
<path d="M14.2969 65.7031V33.2969H23.8281L33.3594 45.2109L42.8906 33.2969H52.4219V65.7031H42.8906V47.1172L33.3594 59.0312L23.8281 47.1172V65.7031H14.2969ZM73.8672 65.7031L59.5703 49.9766H69.1016V33.2969H78.6328V49.9766H88.1641L73.8672 65.7031Z" fill="white"/>
</svg>
