<svg width="100" height="100" viewBox="0 0 100 100" fill="none" xmlns="http://www.w3.org/2000/svg">
<path d="M56.4059 50.4995C56.4059 66.2396 43.779 79 28.2025 79C12.6259 79 0 66.2434 0 50.4995C0 34.7556 12.6269 22 28.2025 22C43.778 22 56.4059 34.7595 56.4059 50.4995ZM87.3453 50.4995C87.3453 65.3169 81.0314 77.3276 73.2436 77.3276C65.4559 77.3276 59.1419 65.313 59.1419 50.4995C59.1419 35.686 65.4559 23.6715 73.2436 23.6715C81.0314 23.6715 87.3453 35.686 87.3453 50.4995ZM100 50.4995C100 63.7751 97.7792 74.5364 95.0402 74.5364C92.3013 74.5364 90.0804 63.7713 90.0804 50.4995C90.0804 37.2277 92.3013 26.4627 95.0412 26.4627C97.7811 26.4627 100 37.2249 100 50.4995Z" fill="white"/>
</svg>
