<svg width="100" height="100" viewBox="0 0 100 100" fill="none" xmlns="http://www.w3.org/2000/svg">
<g clip-path="url(#clip0_4150_186726)">
<path fill-rule="evenodd" clip-rule="evenodd" d="M30.1052 16.4703C26.1166 11.7169 18.3721 14.1587 17.8313 20.3403L13.6709 67.894C13.026 75.2647 18.4784 81.7627 25.8492 82.4075L67.4979 86.0513C74.8687 86.6962 81.3666 81.2437 82.0115 73.873L86.1719 26.3193C86.7127 20.1378 79.5098 16.3882 74.7564 20.3768L63.275 30.0108C61.959 31.1151 61.301 31.6672 61.0133 32.3451C60.7601 32.9414 60.7023 33.6025 60.848 34.2337C61.0137 34.9513 61.5658 35.6093 62.6701 36.9253L64.9955 39.6966C75.7403 52.5017 65.6394 71.9056 48.987 70.4487L46.7883 70.2563C30.136 68.7994 23.5578 47.9364 36.363 37.1916L39.1343 34.8662C40.4503 33.7619 41.1083 33.2098 41.3961 32.5319C41.6492 31.9356 41.707 31.2745 41.5613 30.6433C41.3957 29.9257 40.8435 29.2677 39.7392 27.9517L30.1052 16.4703ZM55.6915 20.9731C54.3754 22.0773 53.7174 22.6295 52.9999 22.7951C52.3687 22.9408 51.7076 22.883 51.1113 22.6299C50.4334 22.3422 49.8813 21.6841 48.777 20.3681L39.143 8.88672C28.3981 -3.91848 7.53511 2.65968 6.07822 19.312L1.91781 66.8657C0.705063 80.7275 10.9591 92.9478 24.8209 94.1606L66.4696 97.8044C80.3314 99.0171 92.5518 88.763 93.7645 74.9012L97.9249 27.3475C99.3818 10.6952 79.978 0.594227 67.1728 11.339L55.6915 20.9731ZM53.6324 44.5089C52.5281 43.1928 51.9759 42.5348 51.2981 42.2471C50.7018 41.994 50.0407 41.9361 49.4095 42.0818C48.6919 42.2475 48.0339 42.7996 46.7179 43.9039L43.9466 46.2293C39.1932 50.2179 41.635 57.9624 47.8166 58.5033L50.0152 58.6956C56.1967 59.2364 59.9463 52.0336 55.9577 47.2801L53.6324 44.5089Z" fill="white"/>
</g>
<defs>
<clipPath id="clip0_4150_186726">
<rect width="100" height="100" fill="white"/>
</clipPath>
</defs>
</svg>
