<svg width="100" height="100" viewBox="0 0 100 100" fill="none" xmlns="http://www.w3.org/2000/svg">
<g clip-path="url(#clip0_3944_187324)">
<path d="M91.7423 14.0002H67.4922C63.4221 13.9801 59.4671 15.3503 56.2817 17.884C53.0964 20.4178 50.8716 23.9632 49.9756 27.9336C49.0859 23.9911 46.8858 20.4668 43.7345 17.9361C40.5833 15.4054 36.6671 14.0179 32.6256 14.0002H8.30892C6.09878 14.0002 3.97917 14.8782 2.41636 16.441C0.85356 18.0038 -0.0244141 20.1234 -0.0244141 22.3336L-0.0244141 65.0002C-0.0244141 66.0946 0.191134 67.1782 0.609923 68.1892C1.02871 69.2003 1.64254 70.119 2.41636 70.8928C3.19018 71.6666 4.10884 72.2804 5.11989 72.6992C6.13094 73.118 7.21457 73.3335 8.30892 73.3335H23.8756C41.6423 73.3335 46.9923 77.6002 49.5256 86.3502C49.552 86.4529 49.6127 86.5435 49.6975 86.6071C49.7823 86.6707 49.8863 86.7036 49.9923 86.7002H50.0923C50.1982 86.7036 50.3022 86.6707 50.387 86.6071C50.4718 86.5435 50.5325 86.4529 50.5589 86.3502C53.1089 77.5669 58.4089 73.3002 76.1256 73.3002H91.6423C93.8524 73.3002 95.972 72.4222 97.5348 70.8594C99.0976 69.2966 99.9756 67.177 99.9756 64.9669V22.3336C99.9757 20.1406 99.1115 18.036 97.5703 16.4761C96.029 14.9161 93.935 14.0265 91.7423 14.0002ZM42.0589 60.0502C42.0589 60.2094 41.9957 60.362 41.8832 60.4745C41.7707 60.587 41.618 60.6502 41.4589 60.6502H13.6256C13.4665 60.6502 13.3138 60.587 13.2013 60.4745C13.0888 60.362 13.0256 60.2094 13.0256 60.0502V56.0836C13.0256 55.9244 13.0888 55.7718 13.2013 55.6593C13.3138 55.5468 13.4665 55.4836 13.6256 55.4836H41.4589C41.618 55.4836 41.7707 55.5468 41.8832 55.6593C41.9957 55.7718 42.0589 55.9244 42.0589 56.0836V60.0502ZM42.0589 49.4836C42.0589 49.6427 41.9957 49.7953 41.8832 49.9078C41.7707 50.0203 41.618 50.0836 41.4589 50.0836H13.6256C13.4665 50.0836 13.3138 50.0203 13.2013 49.9078C13.0888 49.7953 13.0256 49.6427 13.0256 49.4836V45.5169C13.0256 45.3578 13.0888 45.2051 13.2013 45.0926C13.3138 44.9801 13.4665 44.9169 13.6256 44.9169H41.4589C41.618 44.9169 41.7707 44.9801 41.8832 45.0926C41.9957 45.2051 42.0589 45.3578 42.0589 45.5169V49.4836ZM42.0589 38.9169C42.0589 39.076 41.9957 39.2286 41.8832 39.3411C41.7707 39.4537 41.618 39.5169 41.4589 39.5169H13.6256C13.4665 39.5169 13.3138 39.4537 13.2013 39.3411C13.0888 39.2286 13.0256 39.076 13.0256 38.9169V34.9502C13.0256 34.7911 13.0888 34.6385 13.2013 34.526C13.3138 34.4134 13.4665 34.3502 13.6256 34.3502H41.4589C41.618 34.3502 41.7707 34.4134 41.8832 34.526C41.9957 34.6385 42.0589 34.7911 42.0589 34.9502V38.9169ZM87.0589 60.0336C87.0589 60.1927 86.9957 60.3453 86.8832 60.4578C86.7707 60.5703 86.618 60.6336 86.4589 60.6336H58.6256C58.4665 60.6336 58.3138 60.5703 58.2013 60.4578C58.0888 60.3453 58.0256 60.1927 58.0256 60.0336V56.0669C58.0256 55.9078 58.0888 55.7551 58.2013 55.6426C58.3138 55.5301 58.4665 55.4669 58.6256 55.4669H86.4589C86.618 55.4669 86.7707 55.5301 86.8832 55.6426C86.9957 55.7551 87.0589 55.9078 87.0589 56.0669V60.0336ZM87.0589 49.4669C87.0589 49.626 86.9957 49.7786 86.8832 49.8911C86.7707 50.0037 86.618 50.0669 86.4589 50.0669H58.6256C58.4665 50.0669 58.3138 50.0037 58.2013 49.8911C58.0888 49.7786 58.0256 49.626 58.0256 49.4669V45.5002C58.0256 45.3411 58.0888 45.1885 58.2013 45.076C58.3138 44.9634 58.4665 44.9002 58.6256 44.9002H86.4589C86.618 44.9002 86.7707 44.9634 86.8832 45.076C86.9957 45.1885 87.0589 45.3411 87.0589 45.5002V49.4669ZM87.0589 38.9002C87.0589 39.0593 86.9957 39.212 86.8832 39.3245C86.7707 39.437 86.618 39.5002 86.4589 39.5002H58.6256C58.4665 39.5002 58.3138 39.437 58.2013 39.3245C58.0888 39.212 58.0256 39.0593 58.0256 38.9002V34.9502C58.0256 34.7911 58.0888 34.6385 58.2013 34.526C58.3138 34.4134 58.4665 34.3502 58.6256 34.3502H86.4589C86.618 34.3502 86.7707 34.4134 86.8832 34.526C86.9957 34.6385 87.0589 34.7911 87.0589 34.9502V38.9169V38.9002Z" fill="white"/>
</g>
<defs>
<clipPath id="clip0_3944_187324">
<rect width="100" height="100" fill="white"/>
</clipPath>
</defs>
</svg>
