<svg width="100" height="100" viewBox="0 0 100 100" fill="none" xmlns="http://www.w3.org/2000/svg">
<g clip-path="url(#clip0_3944_187327)">
<path d="M7.10742 49.9988C7.10742 66.9768 16.9744 81.6492 31.2823 88.6022L10.8211 32.5425C8.44108 37.877 7.10742 43.7804 7.10742 49.9988V49.9988Z" fill="white"/>
<path d="M78.9586 47.8345C78.9586 42.5334 77.0544 38.8623 75.4212 36.0049C73.2468 32.4716 71.2088 29.4795 71.2088 25.9463C71.2088 22.0034 74.1993 18.3331 78.4117 18.3331C78.6019 18.3331 78.7823 18.3567 78.9675 18.3673C71.3361 11.376 61.1688 7.10742 50.0016 7.10742C35.0163 7.10742 21.8324 14.7958 14.1626 26.4409C15.169 26.4711 16.1174 26.4924 16.923 26.4924C21.4096 26.4924 28.3546 25.948 28.3546 25.948C30.6668 25.8117 30.9395 29.2078 28.6296 29.4812C28.6296 29.4812 26.3059 29.7546 23.7202 29.8901L39.3405 76.3507L48.7276 48.1985L42.0446 29.8885C39.7348 29.753 37.5465 29.4795 37.5465 29.4795C35.2351 29.3441 35.5061 25.81 37.8175 25.9463C37.8175 25.9463 44.9013 26.4907 49.1161 26.4907C53.6019 26.4907 60.5477 25.9463 60.5477 25.9463C62.8616 25.81 63.1334 29.2061 60.8227 29.4795C60.8227 29.4795 58.4941 29.753 55.9133 29.8885L71.4145 75.9973L75.693 61.7004C77.5474 55.7677 78.9586 51.5064 78.9586 47.8345V47.8345Z" fill="white"/>
<path d="M50.754 53.7505L37.8843 91.1467C41.7269 92.2763 45.7907 92.8942 50.0015 92.8942C54.9966 92.8942 59.7868 92.0306 64.2457 90.4628C64.1306 90.2791 64.0261 90.0841 63.9404 89.8719L50.754 53.7505Z" fill="white"/>
<path d="M87.6394 29.4199C87.8238 30.7862 87.9283 32.2529 87.9283 33.8305C87.9283 38.1832 87.1154 43.0761 84.6668 49.1942L71.5645 87.0752C84.3167 79.6391 92.894 65.8237 92.894 49.9997C92.8949 42.5424 90.9899 35.5298 87.6394 29.4199V29.4199Z" fill="white"/>
<path d="M50.0016 0C22.4314 0 0 22.4293 0 49.9988C0 77.5716 22.4314 100 50.0016 100C77.571 100 100.006 77.5716 100.006 49.9988C100.005 22.4293 77.571 0 50.0016 0ZM50.0016 97.7082C23.6957 97.7082 2.29269 76.3057 2.29269 49.9988C2.29269 23.6935 23.6949 2.29263 50.0016 2.29263C76.3067 2.29263 97.7081 23.6935 97.7081 49.9988C97.7081 76.3057 76.3067 97.7082 50.0016 97.7082Z" fill="white"/>
</g>
<defs>
<clipPath id="clip0_3944_187327">
<rect width="100" height="100" fill="white"/>
</clipPath>
</defs>
</svg>
