<svg width="100" height="100" viewBox="0 0 100 100" fill="none" xmlns="http://www.w3.org/2000/svg">
<path d="M45.9574 32.4777V86.7555H1L45.9574 32.4777ZM45.9574 13C45.9574 18.9617 43.5891 24.6793 39.3735 28.8948C35.158 33.1104 29.4404 35.4787 23.4787 35.4787C17.517 35.4787 11.7994 33.1104 7.58386 28.8948C3.36829 24.6793 1 18.9617 1 13L45.9574 13ZM53.3637 86.7603C53.3637 80.7986 55.732 75.0811 59.9476 70.8655C64.1632 66.6499 69.8807 64.2816 75.8424 64.2816C81.8041 64.2816 87.5217 66.6499 91.7373 70.8655C95.9528 75.0811 98.3211 80.7986 98.3211 86.7603H53.3637ZM53.3637 67.2826V13H98.3307L53.3637 67.2778V67.2826Z" fill="white"/>
</svg>
