<svg width="1340" height="263" viewBox="0 0 1340 263" fill="none" xmlns="http://www.w3.org/2000/svg">
<g filter="url(#filter0_d_26_22)">
<path d="M71.25 256C59.3333 256 49.9833 252.058 43.2 244.175C36.6 236.292 33.3 225.842 33.3 212.825V170.2C33.3 163.783 32.2917 159.017 30.275 155.9C28.4417 152.6 25.5083 150.308 21.475 149.025C17.4417 147.558 11.575 146.55 3.875 146V110.25C11.7583 109.7 17.7167 108.692 21.75 107.225C25.7833 105.758 28.7167 103.467 30.55 100.35C32.3833 97.05 33.3 92.2833 33.3 86.05V43.425C33.3 30.4083 36.6 19.9583 43.2 12.075C49.9833 4.19166 59.3333 0.249995 71.25 0.249995H91.875V29.675H86.65C80.9667 29.675 76.5667 31.1417 73.45 34.075C70.3333 37.0083 68.775 40.8583 68.775 45.625V87.15C68.775 98.7 65.8417 107.867 59.975 114.65C54.2917 121.25 46.5917 125.65 36.875 127.85C46.5917 130.233 54.2917 134.817 59.975 141.6C65.8417 148.2 68.775 157.275 68.775 168.825V210.625C68.775 215.392 70.3333 219.242 73.45 222.175C76.5667 225.108 80.9667 226.575 86.65 226.575H91.875V256H71.25ZM176.639 204.575C163.256 204.575 150.881 201.275 139.514 194.675C128.331 187.892 119.439 178.725 112.839 167.175C106.239 155.625 102.939 143.067 102.939 129.5C102.939 115.75 106.239 103.192 112.839 91.825C119.439 80.275 128.606 71.2 140.339 64.6C152.073 57.8167 165.181 54.425 179.664 54.425C192.314 54.425 203.681 56.8083 213.764 61.575C223.848 66.1583 231.914 72.6667 237.964 81.1L209.364 104.475C206.064 99.525 201.756 95.5833 196.439 92.65C191.123 89.7167 185.348 88.25 179.114 88.25C171.414 88.25 164.631 90.175 158.764 94.025C152.898 97.6917 148.314 102.642 145.014 108.875C141.714 115.108 140.064 121.983 140.064 129.5C140.064 136.833 141.714 143.708 145.014 150.125C148.498 156.358 153.264 161.4 159.314 165.25C165.364 168.917 172.239 170.75 179.939 170.75C186.723 170.75 192.589 169.283 197.539 166.35C202.489 163.417 206.981 159.2 211.014 153.7L237.964 177.075C223.664 195.408 203.223 204.575 176.639 204.575ZM252.653 0.249995H289.778V77.8C297.478 62.4 311.87 54.7 332.953 54.7C343.22 54.7 352.478 57.175 360.728 62.125C368.978 66.8917 375.487 73.7667 380.253 82.75C385.02 91.55 387.403 101.817 387.403 113.55V201H350.278V122.625C350.278 110.708 347.528 101.817 342.028 95.95C336.528 90.0833 329.012 87.15 319.478 87.15C311.045 87.15 303.987 90.175 298.303 96.225C292.62 102.092 289.778 110.892 289.778 122.625V201H252.653V0.249995ZM473.321 204.575C460.488 204.575 448.663 201.275 437.846 194.675C427.03 187.892 418.413 178.817 411.996 167.45C405.763 156.083 402.646 143.617 402.646 130.05C402.646 116.483 405.763 104.017 411.996 92.65C418.413 81.1 427.03 71.9333 437.846 65.15C448.663 58.3667 460.488 54.975 473.321 54.975C485.055 54.975 494.496 57.175 501.646 61.575C508.98 65.975 514.663 72.3 518.696 80.55V58H555.546V201H519.521V177.625C515.305 186.242 509.53 192.933 502.196 197.7C495.046 202.283 485.421 204.575 473.321 204.575ZM439.771 129.775C439.771 137.108 441.421 143.983 444.721 150.4C448.205 156.633 452.88 161.675 458.746 165.525C464.796 169.192 471.671 171.025 479.371 171.025C487.255 171.025 494.221 169.192 500.271 165.525C506.505 161.858 511.271 156.908 514.571 150.675C517.871 144.442 519.521 137.567 519.521 130.05C519.521 122.533 517.871 115.658 514.571 109.425C511.271 103.008 506.505 97.9667 500.271 94.3C494.221 90.45 487.255 88.525 479.371 88.525C471.671 88.525 464.796 90.45 458.746 94.3C452.696 97.9667 448.021 102.917 444.721 109.15C441.421 115.383 439.771 122.258 439.771 129.775ZM631.779 201C617.296 201 606.388 197.425 599.054 190.275C591.721 183.125 588.054 171.942 588.054 156.725V89.625H567.979V58H588.054V29.125L625.179 25.275V58H655.429V89.625H625.179V154.8C625.179 163.6 629.029 168 636.729 168H652.129V201H631.779ZM1248.06 256V226.575H1253.28C1258.96 226.575 1263.36 225.108 1266.48 222.175C1269.6 219.242 1271.16 215.392 1271.16 210.625V168.825C1271.16 157.275 1274 148.2 1279.68 141.6C1285.55 134.817 1293.34 130.233 1303.06 127.85C1293.34 125.65 1285.55 121.25 1279.68 114.65C1274 107.867 1271.16 98.7 1271.16 87.15V45.625C1271.16 40.8583 1269.6 37.0083 1266.48 34.075C1263.36 31.1417 1258.96 29.675 1253.28 29.675H1248.06V0.249995H1268.68C1280.6 0.249995 1289.86 4.19166 1296.46 12.075C1303.24 19.9583 1306.63 30.4083 1306.63 43.425V86.05C1306.63 92.2833 1307.55 97.05 1309.38 100.35C1311.21 103.467 1314.15 105.758 1318.18 107.225C1322.21 108.692 1328.17 109.7 1336.06 110.25V146C1328.36 146.55 1322.49 147.558 1318.46 149.025C1314.42 150.308 1311.4 152.6 1309.38 155.9C1307.55 159.017 1306.63 163.783 1306.63 170.2V212.825C1306.63 225.842 1303.24 236.292 1296.46 244.175C1289.86 252.058 1280.6 256 1268.68 256H1248.06Z" fill="white"/>
<path d="M649.139 223H656.289C663.989 223 667.839 218.6 667.839 209.8V58H704.964V211.725C704.964 226.942 701.297 238.125 693.964 245.275C686.631 252.425 675.722 256 661.239 256H649.139V223ZM664.264 24.175C664.264 18.125 666.372 12.9917 670.589 8.77498C674.989 4.55832 680.306 2.44998 686.539 2.44998C692.956 2.44998 698.272 4.55832 702.489 8.77498C706.706 12.9917 708.814 18.125 708.814 24.175C708.814 30.4083 706.706 35.6333 702.489 39.85C698.272 44.0667 692.956 46.175 686.539 46.175C680.306 46.175 674.989 44.0667 670.589 39.85C666.372 35.45 664.264 30.225 664.264 24.175ZM795.396 204.575C780.913 204.575 768.079 201.275 756.896 194.675C745.713 187.892 737.004 178.817 730.771 167.45C724.538 156.083 721.421 143.525 721.421 129.775C721.421 116.208 724.629 103.65 731.046 92.1C737.463 80.55 746.263 71.3833 757.446 64.6C768.813 57.8167 781.463 54.425 795.396 54.425C809.329 54.425 821.796 57.8167 832.796 64.6C843.979 71.3833 852.596 80.55 858.646 92.1C864.879 103.467 867.996 116.025 867.996 129.775C867.996 134.358 867.629 138.758 866.896 142.975H759.921C762.121 151.592 766.246 158.558 772.296 163.875C778.529 169.008 786.229 171.575 795.396 171.575C803.096 171.575 809.971 169.833 816.021 166.35C822.071 162.683 826.838 158.008 830.321 152.325L859.196 174.05C853.329 183.217 844.713 190.642 833.346 196.325C821.979 201.825 809.329 204.575 795.396 204.575ZM830.596 115.2C828.396 106.95 824.088 100.075 817.671 94.575C811.254 89.075 803.646 86.325 794.846 86.325C786.229 86.325 778.713 88.9833 772.296 94.3C766.063 99.6167 761.938 106.583 759.921 115.2H830.596ZM933.098 201C918.615 201 907.706 197.425 900.373 190.275C893.04 183.125 889.373 171.942 889.373 156.725V89.625H869.298V58H889.373V29.125L926.498 25.275V58H956.748V89.625H926.498V154.8C926.498 163.6 930.348 168 938.048 168H953.448V201H933.098ZM988.957 204.575C981.991 204.575 976.124 202.192 971.357 197.425C966.591 192.658 964.207 186.975 964.207 180.375C964.207 173.775 966.591 168.183 971.357 163.6C976.124 158.833 981.991 156.45 988.957 156.45C995.924 156.45 1001.7 158.833 1006.28 163.6C1011.05 168.183 1013.43 173.775 1013.43 180.375C1013.43 187.158 1011.05 192.933 1006.28 197.7C1001.7 202.283 995.924 204.575 988.957 204.575ZM1090.19 204.575C1077.36 204.575 1065.53 201.275 1054.72 194.675C1043.9 187.892 1035.28 178.817 1028.87 167.45C1022.63 156.083 1019.52 143.617 1019.52 130.05C1019.52 116.483 1022.63 104.017 1028.87 92.65C1035.28 81.1 1043.9 71.9333 1054.72 65.15C1065.53 58.3667 1077.36 54.975 1090.19 54.975C1101.92 54.975 1111.37 57.175 1118.52 61.575C1125.85 65.975 1131.53 72.3 1135.57 80.55V58H1172.42V201H1136.39V177.625C1132.17 186.242 1126.4 192.933 1119.07 197.7C1111.92 202.283 1102.29 204.575 1090.19 204.575ZM1056.64 129.775C1056.64 137.108 1058.29 143.983 1061.59 150.4C1065.07 156.633 1069.75 161.675 1075.62 165.525C1081.67 169.192 1088.54 171.025 1096.24 171.025C1104.12 171.025 1111.09 169.192 1117.14 165.525C1123.37 161.858 1128.14 156.908 1131.44 150.675C1134.74 144.442 1136.39 137.567 1136.39 130.05C1136.39 122.533 1134.74 115.658 1131.44 109.425C1128.14 103.008 1123.37 97.9667 1117.14 94.3C1111.09 90.45 1104.12 88.525 1096.24 88.525C1088.54 88.525 1081.67 90.45 1075.62 94.3C1069.57 97.9667 1064.89 102.917 1061.59 109.15C1058.29 115.383 1056.64 122.258 1056.64 129.775ZM1194.47 58H1231.6V201H1194.47V58ZM1190.62 24.175C1190.62 18.125 1192.73 12.9917 1196.95 8.77498C1201.35 4.55832 1206.67 2.44998 1212.9 2.44998C1219.32 2.44998 1224.63 4.55832 1228.85 8.77498C1233.07 12.9917 1235.17 18.125 1235.17 24.175C1235.17 30.4083 1233.07 35.6333 1228.85 39.85C1224.63 44.0667 1219.32 46.175 1212.9 46.175C1206.67 46.175 1201.35 44.0667 1196.95 39.85C1192.73 35.45 1190.62 30.225 1190.62 24.175Z" fill="#9DF15B"/>
<path d="M43.2 244.175L42.4332 244.817L42.442 244.827L43.2 244.175ZM30.275 155.9L29.4008 156.386L29.4172 156.415L29.4354 156.443L30.275 155.9ZM21.475 149.025L21.1333 149.965L21.1524 149.972L21.1718 149.978L21.475 149.025ZM3.875 146H2.875V146.931L3.80375 146.997L3.875 146ZM3.875 110.25L3.8054 109.252L2.875 109.317V110.25H3.875ZM21.75 107.225L21.4083 106.285L21.4083 106.285L21.75 107.225ZM30.55 100.35L31.4119 100.857L31.4182 100.846L31.4242 100.836L30.55 100.35ZM43.2 12.075L42.4419 11.4227L42.4332 11.4331L43.2 12.075ZM91.875 0.249995H92.875V-0.750005H91.875V0.249995ZM91.875 29.675V30.675H92.875V29.675H91.875ZM73.45 34.075L72.7646 33.3468L72.7646 33.3468L73.45 34.075ZM59.975 114.65L59.2186 113.996L59.2172 113.997L59.975 114.65ZM36.875 127.85L36.6542 126.875L36.6368 128.821L36.875 127.85ZM59.975 141.6L59.2085 142.242L59.2179 142.253L59.2276 142.264L59.975 141.6ZM73.45 222.175L74.1354 221.447L74.1354 221.447L73.45 222.175ZM91.875 226.575H92.875V225.575H91.875V226.575ZM91.875 256V257H92.875V256H91.875ZM71.25 255C59.5773 255 50.5226 251.152 43.958 243.523L42.442 244.827C49.4441 252.965 59.0893 257 71.25 257V255ZM43.9668 243.533C37.554 235.873 34.3 225.671 34.3 212.825H32.3C32.3 226.012 35.646 236.71 42.4332 244.817L43.9668 243.533ZM34.3 212.825V170.2H32.3V212.825H34.3ZM34.3 170.2C34.3 163.714 33.2874 158.715 31.1146 155.357L29.4354 156.443C31.2959 159.319 32.3 163.852 32.3 170.2H34.3ZM31.1492 155.414C29.1767 151.864 26.0226 149.423 21.7782 148.072L21.1718 149.978C24.9941 151.194 27.7067 153.336 29.4008 156.386L31.1492 155.414ZM21.8167 148.085C17.6532 146.571 11.6776 145.555 3.94625 145.003L3.80375 146.997C11.4724 147.545 17.2302 148.545 21.1333 149.965L21.8167 148.085ZM4.875 146V110.25H2.875V146H4.875ZM3.9446 111.248C11.8568 110.696 17.926 109.68 22.0917 108.165L21.4083 106.285C17.5073 107.704 11.6599 108.704 3.8054 109.252L3.9446 111.248ZM22.0917 108.165C26.3009 106.634 29.4396 104.21 31.4119 100.857L29.6881 99.843C27.9937 102.723 25.2658 104.882 21.4083 106.285L22.0917 108.165ZM31.4242 100.836C33.3773 97.32 34.3 92.3551 34.3 86.05H32.3C32.3 92.2116 31.3894 96.78 29.6758 99.8643L31.4242 100.836ZM34.3 86.05V43.425H32.3V86.05H34.3ZM34.3 43.425C34.3 30.579 37.554 20.3766 43.9668 12.7169L42.4332 11.4331C35.646 19.54 32.3 30.2376 32.3 43.425H34.3ZM43.958 12.7272C50.5226 5.09815 59.5773 1.24999 71.25 1.24999V-0.750005C59.0893 -0.750005 49.4441 3.28517 42.442 11.4227L43.958 12.7272ZM71.25 1.24999H91.875V-0.750005H71.25V1.24999ZM90.875 0.249995V29.675H92.875V0.249995H90.875ZM91.875 28.675H86.65V30.675H91.875V28.675ZM86.65 28.675C80.7976 28.675 76.121 30.1879 72.7646 33.3468L74.1354 34.8032C77.0124 32.0954 81.1358 30.675 86.65 30.675V28.675ZM72.7646 33.3468C69.4233 36.4916 67.775 40.6173 67.775 45.625H69.775C69.775 41.0994 71.2434 37.525 74.1354 34.8032L72.7646 33.3468ZM67.775 45.625V87.15H69.775V45.625H67.775ZM67.775 87.15C67.775 98.5305 64.8873 107.441 59.2186 113.996L60.7314 115.304C66.796 108.292 69.775 98.8694 69.775 87.15H67.775ZM59.2172 113.997C53.6933 120.412 46.1932 124.715 36.6542 126.875L37.0958 128.825C46.9901 126.585 54.8901 122.088 60.7328 115.303L59.2172 113.997ZM36.6368 128.821C46.175 131.161 53.6793 135.643 59.2085 142.242L60.7415 140.958C54.904 133.99 47.0083 129.306 37.1132 126.879L36.6368 128.821ZM59.2276 142.264C64.8867 148.631 67.775 157.443 67.775 168.825H69.775C69.775 157.107 66.7966 147.769 60.7224 140.936L59.2276 142.264ZM67.775 168.825V210.625H69.775V168.825H67.775ZM67.775 210.625C67.775 215.633 69.4233 219.758 72.7646 222.903L74.1354 221.447C71.2434 218.725 69.775 215.151 69.775 210.625H67.775ZM72.7646 222.903C76.121 226.062 80.7976 227.575 86.65 227.575V225.575C81.1358 225.575 77.0124 224.155 74.1354 221.447L72.7646 222.903ZM86.65 227.575H91.875V225.575H86.65V227.575ZM90.875 226.575V256H92.875V226.575H90.875ZM91.875 255H71.25V257H91.875V255ZM139.514 194.675L138.996 195.53L139.004 195.535L139.012 195.54L139.514 194.675ZM112.839 167.175L111.971 167.671L111.971 167.671L112.839 167.175ZM112.839 91.825L113.704 92.3271L113.708 92.3211L112.839 91.825ZM140.339 64.6L140.83 65.4716L140.84 65.4657L140.339 64.6ZM213.764 61.575L213.337 62.4791L213.344 62.4823L213.351 62.4854L213.764 61.575ZM237.964 81.1L238.597 81.8743L239.324 81.2801L238.777 80.5171L237.964 81.1ZM209.364 104.475L208.532 105.03L209.144 105.947L209.997 105.249L209.364 104.475ZM196.439 92.65L195.956 93.5256L195.956 93.5256L196.439 92.65ZM158.764 94.025L159.294 94.873L159.304 94.8671L159.313 94.861L158.764 94.025ZM145.014 108.875L145.898 109.343L145.898 109.343L145.014 108.875ZM145.014 150.125L144.125 150.582L144.133 150.598L144.142 150.613L145.014 150.125ZM159.314 165.25L158.778 166.094L158.787 166.1L158.796 166.105L159.314 165.25ZM197.539 166.35L198.049 167.21L198.049 167.21L197.539 166.35ZM211.014 153.7L211.67 152.945L210.85 152.233L210.208 153.109L211.014 153.7ZM237.964 177.075L238.753 177.69L239.337 176.942L238.62 176.32L237.964 177.075ZM176.639 203.575C163.429 203.575 151.228 200.32 140.017 193.81L139.012 195.54C150.534 202.23 163.083 205.575 176.639 205.575V203.575ZM140.033 193.82C128.997 187.126 120.225 178.084 113.708 166.679L111.971 167.671C118.654 179.366 127.665 188.657 138.996 195.53L140.033 193.82ZM113.708 166.679C107.196 155.283 103.939 142.896 103.939 129.5H101.939C101.939 143.237 105.283 155.967 111.971 167.671L113.708 166.679ZM103.939 129.5C103.939 115.918 107.197 103.534 113.704 92.3271L111.975 91.3229C105.282 102.849 101.939 115.582 101.939 129.5H103.939ZM113.708 92.3211C120.217 80.9301 129.252 71.984 140.83 65.4716L139.849 63.7284C127.96 70.416 118.662 79.6199 111.971 91.3289L113.708 92.3211ZM140.84 65.4657C152.411 58.7764 165.344 55.425 179.664 55.425V53.425C165.018 53.425 151.735 56.8569 139.839 63.7343L140.84 65.4657ZM179.664 55.425C192.187 55.425 203.404 57.7835 213.337 62.4791L214.192 60.6709C203.958 55.8331 192.442 53.425 179.664 53.425V55.425ZM213.351 62.4854C223.286 67.0013 231.211 73.4013 237.152 81.6829L238.777 80.5171C232.618 71.932 224.41 65.3153 214.178 60.6646L213.351 62.4854ZM237.332 80.3257L208.732 103.701L209.997 105.249L238.597 81.8743L237.332 80.3257ZM210.197 103.92C206.806 98.8341 202.377 94.7835 196.923 91.7744L195.956 93.5256C201.136 96.3831 205.323 100.216 208.532 105.03L210.197 103.92ZM196.923 91.7744C191.454 88.7572 185.512 87.25 179.114 87.25V89.25C185.184 89.25 190.792 90.6761 195.956 93.5256L196.923 91.7744ZM179.114 87.25C171.239 87.25 164.261 89.2216 158.216 93.1889L159.313 94.861C165.001 91.1283 171.59 89.25 179.114 89.25V87.25ZM158.234 93.177C152.215 96.9389 147.511 102.021 144.131 108.407L145.898 109.343C149.118 103.262 153.58 98.4444 159.294 94.873L158.234 93.177ZM144.131 108.407C140.749 114.794 139.064 121.831 139.064 129.5H141.064C141.064 122.135 142.68 115.423 145.898 109.343L144.131 108.407ZM139.064 129.5C139.064 136.99 140.751 144.022 144.125 150.582L145.904 149.668C142.678 143.395 141.064 136.677 141.064 129.5H139.064ZM144.142 150.613C147.706 156.991 152.588 162.155 158.778 166.094L159.851 164.406C153.94 160.645 149.29 155.725 145.887 149.637L144.142 150.613ZM158.796 166.105C165.016 169.875 172.073 171.75 179.939 171.75V169.75C172.405 169.75 165.713 167.958 159.833 164.395L158.796 166.105ZM179.939 171.75C186.87 171.75 192.919 170.25 198.049 167.21L197.03 165.49C192.26 168.316 186.576 169.75 179.939 169.75V171.75ZM198.049 167.21C203.135 164.197 207.722 159.88 211.821 154.291L210.208 153.109C206.24 158.52 201.844 162.637 197.03 165.49L198.049 167.21ZM210.359 154.455L237.309 177.83L238.62 176.32L211.67 152.945L210.359 154.455ZM237.176 176.46C223.094 194.513 202.965 203.575 176.639 203.575V205.575C203.481 205.575 224.235 196.303 238.753 177.69L237.176 176.46ZM252.653 0.249995V-0.750005H251.653V0.249995H252.653ZM289.778 0.249995H290.778V-0.750005H289.778V0.249995ZM289.778 77.8H288.778L290.673 78.2472L289.778 77.8ZM360.728 62.125L360.214 62.9825L360.221 62.9867L360.228 62.9909L360.728 62.125ZM380.253 82.75L379.37 83.2187L379.374 83.2263L380.253 82.75ZM387.403 201V202H388.403V201H387.403ZM350.278 201H349.278V202H350.278V201ZM298.303 96.225L299.022 96.9208L299.027 96.9153L299.032 96.9097L298.303 96.225ZM289.778 201V202H290.778V201H289.778ZM252.653 201H251.653V202H252.653V201ZM252.653 1.24999H289.778V-0.750005H252.653V1.24999ZM288.778 0.249995V77.8H290.778V0.249995H288.778ZM290.673 78.2472C298.162 63.2689 312.146 55.7 332.953 55.7V53.7C311.594 53.7 296.795 61.5311 288.884 77.3528L290.673 78.2472ZM332.953 55.7C343.051 55.7 352.13 58.132 360.214 62.9825L361.243 61.2675C352.827 56.218 343.389 53.7 332.953 53.7V55.7ZM360.228 62.9909C368.305 67.6573 374.685 74.3894 379.37 83.2187L381.137 82.2813C376.288 73.1439 369.652 66.126 361.229 61.2591L360.228 62.9909ZM379.374 83.2263C384.049 91.8567 386.403 101.954 386.403 113.55H388.403C388.403 101.679 385.991 91.2433 381.133 82.2737L379.374 83.2263ZM386.403 113.55V201H388.403V113.55H386.403ZM387.403 200H350.278V202H387.403V200ZM351.278 201V122.625H349.278V201H351.278ZM351.278 122.625C351.278 110.575 348.499 101.39 342.758 95.2661L341.299 96.6339C346.557 102.243 349.278 110.842 349.278 122.625H351.278ZM342.758 95.2661C337.034 89.1604 329.232 86.15 319.478 86.15V88.15C328.791 88.15 336.023 91.0062 341.299 96.6339L342.758 95.2661ZM319.478 86.15C310.774 86.15 303.45 89.2855 297.574 95.5403L299.032 96.9097C304.523 91.0645 311.316 88.15 319.478 88.15V86.15ZM297.585 95.5292C291.655 101.65 288.778 110.745 288.778 122.625H290.778C290.778 111.038 293.585 102.533 299.022 96.9208L297.585 95.5292ZM288.778 122.625V201H290.778V122.625H288.778ZM289.778 200H252.653V202H289.778V200ZM253.653 201V0.249995H251.653V201H253.653ZM437.846 194.675L437.315 195.522L437.326 195.529L437.846 194.675ZM411.996 167.45L411.12 167.931L411.126 167.942L411.996 167.45ZM411.996 92.65L411.122 92.1643L411.12 92.1692L411.996 92.65ZM437.846 65.15L437.315 64.3028L437.315 64.3028L437.846 65.15ZM501.646 61.575L501.122 62.4267L501.132 62.4325L501.646 61.575ZM518.696 80.55L517.798 80.9892L519.696 80.55H518.696ZM518.696 58V57H517.696V58H518.696ZM555.546 58H556.546V57H555.546V58ZM555.546 201V202H556.546V201H555.546ZM519.521 201H518.521V202H519.521V201ZM519.521 177.625H520.521L518.623 177.185L519.521 177.625ZM502.196 197.7L502.736 198.542L502.741 198.538L502.196 197.7ZM444.721 150.4L443.832 150.857L443.84 150.873L443.849 150.888L444.721 150.4ZM458.746 165.525L458.198 166.361L458.213 166.371L458.228 166.38L458.746 165.525ZM500.271 165.525L499.764 164.663L499.753 164.67L500.271 165.525ZM514.571 150.675L513.688 150.207L513.688 150.207L514.571 150.675ZM514.571 109.425L513.682 109.882L513.688 109.893L514.571 109.425ZM500.271 94.3L499.735 95.1437L499.749 95.1531L499.764 95.1619L500.271 94.3ZM458.746 94.3L459.265 95.1552L459.274 95.1495L459.283 95.1437L458.746 94.3ZM473.321 203.575C460.669 203.575 449.025 200.324 438.367 193.821L437.326 195.529C448.301 202.226 460.307 205.575 473.321 205.575V203.575ZM438.378 193.828C427.705 187.135 419.204 178.184 412.867 166.958L411.126 167.942C417.622 179.45 426.354 188.648 437.315 195.522L438.378 193.828ZM412.873 166.969C406.725 155.757 403.646 143.457 403.646 130.05H401.646C401.646 143.777 404.802 156.41 411.12 167.931L412.873 166.969ZM403.646 130.05C403.646 116.643 406.725 104.343 412.873 93.1308L411.12 92.1692C404.802 103.69 401.646 116.323 401.646 130.05H403.646ZM412.871 93.1356C419.208 81.7278 427.709 72.6877 438.378 65.9972L437.315 64.3028C426.35 71.179 417.618 80.4722 411.122 92.1644L412.871 93.1356ZM438.378 65.9972C449.034 59.3142 460.675 55.975 473.321 55.975V53.975C460.301 53.975 448.292 57.4191 437.315 64.3028L438.378 65.9972ZM473.321 55.975C484.94 55.975 494.181 58.1549 501.122 62.4267L502.171 60.7233C494.812 56.1951 485.17 53.975 473.321 53.975V55.975ZM501.132 62.4325C508.287 66.7257 513.843 72.8994 517.798 80.9892L519.595 80.1108C515.483 71.7006 509.672 65.2243 502.161 60.7175L501.132 62.4325ZM519.696 80.55V58H517.696V80.55H519.696ZM518.696 59H555.546V57H518.696V59ZM554.546 58V201H556.546V58H554.546ZM555.546 200H519.521V202H555.546V200ZM520.521 201V177.625H518.521V201H520.521ZM518.623 177.185C514.478 185.656 508.819 192.203 501.652 196.862L502.741 198.538C510.241 193.664 516.131 186.827 520.42 178.065L518.623 177.185ZM501.657 196.858C494.723 201.303 485.308 203.575 473.321 203.575V205.575C485.535 205.575 495.37 203.264 502.736 198.542L501.657 196.858ZM438.771 129.775C438.771 137.265 440.458 144.297 443.832 150.857L445.611 149.943C442.385 143.67 440.771 136.952 440.771 129.775H438.771ZM443.849 150.888C447.409 157.259 452.194 162.421 458.198 166.361L459.295 164.689C453.565 160.929 449.001 156.008 445.594 149.912L443.849 150.888ZM458.228 166.38C464.448 170.15 471.505 172.025 479.371 172.025V170.025C471.838 170.025 465.145 168.233 459.265 164.67L458.228 166.38ZM479.371 172.025C487.416 172.025 494.566 170.152 500.79 166.38L499.753 164.67C493.877 168.231 487.094 170.025 479.371 170.025V172.025ZM500.779 166.387C507.167 162.629 512.066 157.544 515.455 151.143L513.688 150.207C510.477 156.272 505.842 161.088 499.764 164.663L500.779 166.387ZM515.455 151.143C518.837 144.756 520.521 137.719 520.521 130.05H518.521C518.521 137.415 516.906 144.127 513.688 150.207L515.455 151.143ZM520.521 130.05C520.521 122.381 518.837 115.344 515.455 108.957L513.688 109.893C516.906 115.973 518.521 122.685 518.521 130.05H520.521ZM515.461 108.968C512.074 102.382 507.175 97.2005 500.779 93.4381L499.764 95.1619C505.835 98.7329 510.469 103.634 513.682 109.882L515.461 108.968ZM500.808 93.4563C494.582 89.4942 487.425 87.525 479.371 87.525V89.525C487.084 89.525 493.861 91.4058 499.735 95.1437L500.808 93.4563ZM479.371 87.525C471.496 87.525 464.432 89.4966 458.21 93.4563L459.283 95.1437C465.161 91.4033 471.847 89.525 479.371 89.525V87.525ZM458.228 93.4448C452.024 97.2049 447.223 102.288 443.838 108.682L445.605 109.618C448.82 103.545 453.369 98.7285 459.265 95.1552L458.228 93.4448ZM443.838 108.682C440.456 115.069 438.771 122.106 438.771 129.775H440.771C440.771 122.41 442.387 115.698 445.605 109.618L443.838 108.682ZM599.054 190.275L599.753 189.559L599.753 189.559L599.054 190.275ZM588.054 89.625H589.054V88.625H588.054V89.625ZM567.979 89.625H566.979V90.625H567.979V89.625ZM567.979 58V57H566.979V58H567.979ZM588.054 58V59H589.054V58H588.054ZM588.054 29.125L587.951 28.1303L587.054 28.2233V29.125H588.054ZM625.179 25.275H626.179V24.1659L625.076 24.2803L625.179 25.275ZM625.179 58H624.179V59H625.179V58ZM655.429 58H656.429V57H655.429V58ZM655.429 89.625V90.625H656.429V89.625H655.429ZM625.179 89.625V88.625H624.179V89.625H625.179ZM652.129 168H653.129V167H652.129V168ZM652.129 201V202H653.129V201H652.129ZM631.779 200C617.448 200 606.834 196.463 599.753 189.559L598.356 190.991C605.942 198.387 617.144 202 631.779 202V200ZM599.753 189.559C592.689 182.672 589.054 171.802 589.054 156.725H587.054C587.054 172.081 590.753 183.578 598.356 190.991L599.753 189.559ZM589.054 156.725V89.625H587.054V156.725H589.054ZM588.054 88.625H567.979V90.625H588.054V88.625ZM568.979 89.625V58H566.979V89.625H568.979ZM567.979 59H588.054V57H567.979V59ZM589.054 58V29.125H587.054V58H589.054ZM588.158 30.1197L625.283 26.2696L625.076 24.2803L587.951 28.1303L588.158 30.1197ZM624.179 25.275V58H626.179V25.275H624.179ZM625.179 59H655.429V57H625.179V59ZM654.429 58V89.625H656.429V58H654.429ZM655.429 88.625H625.179V90.625H655.429V88.625ZM624.179 89.625V154.8H626.179V89.625H624.179ZM624.179 154.8C624.179 159.324 625.166 162.903 627.314 165.359C629.485 167.839 632.688 169 636.729 169V167C633.071 167 630.499 165.961 628.82 164.041C627.118 162.097 626.179 159.076 626.179 154.8H624.179ZM636.729 169H652.129V167H636.729V169ZM651.129 168V201H653.129V168H651.129ZM652.129 200H631.779V202H652.129V200ZM649.139 223V222H648.139V223H649.139ZM667.839 58V57H666.839V58H667.839ZM704.964 58H705.964V57H704.964V58ZM693.964 245.275L694.662 245.991L694.662 245.991L693.964 245.275ZM649.139 256H648.139V257H649.139V256ZM670.589 8.77498L669.897 8.053L669.889 8.06036L669.882 8.06788L670.589 8.77498ZM670.589 39.85L669.867 40.5419L669.882 40.5573L669.897 40.572L670.589 39.85ZM649.139 224H656.289V222H649.139V224ZM656.289 224C660.33 224 663.533 222.839 665.704 220.359C667.852 217.903 668.839 214.324 668.839 209.8H666.839C666.839 214.076 665.901 217.097 664.199 219.041C662.519 220.961 659.947 222 656.289 222V224ZM668.839 209.8V58H666.839V209.8H668.839ZM667.839 59H704.964V57H667.839V59ZM703.964 58V211.725H705.964V58H703.964ZM703.964 211.725C703.964 226.802 700.329 237.672 693.266 244.559L694.662 245.991C702.265 238.578 705.964 227.081 705.964 211.725H703.964ZM693.266 244.559C686.185 251.463 675.57 255 661.239 255V257C675.874 257 687.076 253.387 694.662 245.991L693.266 244.559ZM661.239 255H649.139V257H661.239V255ZM650.139 256V223H648.139V256H650.139ZM665.264 24.175C665.264 18.3859 667.27 13.5082 671.296 9.48209L669.882 8.06788C665.475 12.4751 663.264 17.8641 663.264 24.175H665.264ZM671.281 9.49697C675.49 5.46319 680.557 3.44998 686.539 3.44998V1.44998C680.054 1.44998 674.488 3.65344 669.897 8.053L671.281 9.49697ZM686.539 3.44998C692.713 3.44998 697.768 5.46816 701.782 9.48209L703.196 8.06788C698.777 3.64848 693.198 1.44998 686.539 1.44998V3.44998ZM701.782 9.48209C705.808 13.5082 707.814 18.3859 707.814 24.175H709.814C709.814 17.8641 707.603 12.4751 703.196 8.06788L701.782 9.48209ZM707.814 24.175C707.814 30.1565 705.802 35.123 701.782 39.1429L703.196 40.5571C707.609 36.1436 709.814 30.6602 709.814 24.175H707.814ZM701.782 39.1429C697.768 43.1568 692.713 45.175 686.539 45.175V47.175C693.198 47.175 698.777 44.9765 703.196 40.5571L701.782 39.1429ZM686.539 45.175C680.557 45.175 675.49 43.1618 671.281 39.128L669.897 40.572C674.488 44.9715 680.054 47.175 686.539 47.175V45.175ZM671.311 39.1581C667.271 34.9427 665.264 29.965 665.264 24.175H663.264C663.264 30.485 665.473 35.9573 669.867 40.5419L671.311 39.1581ZM756.896 194.675L756.377 195.53L756.388 195.536L756.896 194.675ZM730.771 167.45L729.894 167.931L729.894 167.931L730.771 167.45ZM731.046 92.1L730.172 91.6143L730.172 91.6143L731.046 92.1ZM757.446 64.6L756.933 63.7413L756.927 63.745L757.446 64.6ZM832.796 64.6L832.271 65.4512L832.277 65.455L832.796 64.6ZM858.646 92.1L857.76 92.564L857.765 92.5725L857.769 92.5808L858.646 92.1ZM866.896 142.975V143.975H867.737L867.881 143.146L866.896 142.975ZM759.921 142.975V141.975H758.634L758.952 143.222L759.921 142.975ZM772.296 163.875L771.636 164.626L771.648 164.637L771.66 164.647L772.296 163.875ZM816.021 166.35L816.52 167.217L816.53 167.211L816.539 167.205L816.021 166.35ZM830.321 152.325L830.922 151.526L830.043 150.865L829.468 151.802L830.321 152.325ZM859.196 174.05L860.038 174.589L860.538 173.808L859.797 173.251L859.196 174.05ZM833.346 196.325L833.782 197.225L833.793 197.219L833.346 196.325ZM830.596 115.2V116.2H831.898L831.562 114.942L830.596 115.2ZM817.671 94.575L817.02 95.3342L817.02 95.3343L817.671 94.575ZM772.296 94.3L771.658 93.53L771.652 93.5345L771.647 93.5392L772.296 94.3ZM759.921 115.2L758.947 114.972L758.66 116.2H759.921V115.2ZM795.396 203.575C781.07 203.575 768.416 200.313 757.404 193.814L756.388 195.536C767.742 202.237 780.755 205.575 795.396 205.575V203.575ZM757.415 193.82C746.38 187.127 737.796 178.18 731.648 166.969L729.894 167.931C736.213 179.453 745.045 188.656 756.377 195.53L757.415 193.82ZM731.648 166.969C725.5 155.759 722.421 143.367 722.421 129.775H720.421C720.421 143.683 723.575 156.408 729.894 167.931L731.648 166.969ZM722.421 129.775C722.421 116.374 725.588 103.983 731.92 92.5856L730.172 91.6143C723.67 103.317 720.421 116.043 720.421 129.775H722.421ZM731.92 92.5856C738.253 81.1859 746.931 72.1472 757.965 65.455L756.927 63.745C745.594 70.6194 736.672 79.914 730.172 91.6143L731.92 92.5856ZM757.958 65.4587C769.162 58.7728 781.633 55.425 795.396 55.425V53.425C781.292 53.425 768.463 56.8605 756.933 63.7413L757.958 65.4587ZM795.396 55.425C809.159 55.425 821.441 58.7727 832.271 65.4512L833.321 63.7488C822.151 56.8606 809.5 53.425 795.396 53.425V55.425ZM832.277 65.455C843.305 72.1442 851.795 81.1759 857.76 92.564L859.532 91.636C853.397 79.9241 844.653 70.6225 833.315 63.745L832.277 65.455ZM857.769 92.5808C863.917 103.791 866.996 116.183 866.996 129.775H868.996C868.996 115.867 865.842 103.142 859.523 91.6192L857.769 92.5808ZM866.996 129.775C866.996 134.305 866.634 138.647 865.911 142.804L867.881 143.146C868.625 138.869 868.996 134.412 868.996 129.775H866.996ZM866.896 141.975H759.921V143.975H866.896V141.975ZM758.952 143.222C761.196 152.013 765.419 159.163 771.636 164.626L772.956 163.124C767.073 157.954 763.045 151.17 760.89 142.728L758.952 143.222ZM771.66 164.647C778.097 169.948 786.03 172.575 795.396 172.575V170.575C786.428 170.575 778.962 168.069 772.932 163.103L771.66 164.647ZM795.396 172.575C803.253 172.575 810.303 170.796 816.52 167.217L815.522 165.483C809.639 168.871 802.939 170.575 795.396 170.575V172.575ZM816.539 167.205C822.717 163.461 827.602 158.675 831.174 152.848L829.468 151.802C826.073 157.342 821.425 161.906 815.503 165.495L816.539 167.205ZM829.72 153.124L858.595 174.849L859.797 173.251L830.922 151.526L829.72 153.124ZM858.354 173.511C852.599 182.502 844.131 189.814 832.899 195.431L833.793 197.219C845.294 191.469 854.059 183.932 860.038 174.589L858.354 173.511ZM832.91 195.425C821.693 200.853 809.194 203.575 795.396 203.575V205.575C809.464 205.575 822.265 202.797 833.781 197.225L832.91 195.425ZM831.562 114.942C829.311 106.499 824.893 99.4487 818.322 93.8157L817.02 95.3343C823.282 100.701 827.481 107.401 829.63 115.458L831.562 114.942ZM818.322 93.8157C811.716 88.1535 803.874 85.325 794.846 85.325V87.325C803.418 87.325 810.793 89.9964 817.02 95.3342L818.322 93.8157ZM794.846 85.325C786.005 85.325 778.26 88.0593 771.658 93.53L772.934 95.07C779.165 89.9074 786.454 87.325 794.846 87.325V85.325ZM771.647 93.5392C765.238 99.0056 761.008 106.165 758.947 114.972L760.895 115.428C762.867 107.001 766.887 100.228 772.945 95.0608L771.647 93.5392ZM759.921 116.2H830.596V114.2H759.921V116.2ZM900.373 190.275L901.071 189.559L901.071 189.559L900.373 190.275ZM889.373 89.625H890.373V88.625H889.373V89.625ZM869.298 89.625H868.298V90.625H869.298V89.625ZM869.298 58V57H868.298V58H869.298ZM889.373 58V59H890.373V58H889.373ZM889.373 29.125L889.27 28.1303L888.373 28.2233V29.125H889.373ZM926.498 25.275H927.498V24.1659L926.395 24.2803L926.498 25.275ZM926.498 58H925.498V59H926.498V58ZM956.748 58H957.748V57H956.748V58ZM956.748 89.625V90.625H957.748V89.625H956.748ZM926.498 89.625V88.625H925.498V89.625H926.498ZM953.448 168H954.448V167H953.448V168ZM953.448 201V202H954.448V201H953.448ZM933.098 200C918.767 200 908.152 196.463 901.071 189.559L899.675 190.991C907.26 198.387 918.462 202 933.098 202V200ZM901.071 189.559C894.007 182.672 890.373 171.802 890.373 156.725H888.373C888.373 172.081 892.072 183.578 899.675 190.991L901.071 189.559ZM890.373 156.725V89.625H888.373V156.725H890.373ZM889.373 88.625H869.298V90.625H889.373V88.625ZM870.298 89.625V58H868.298V89.625H870.298ZM869.298 59H889.373V57H869.298V59ZM890.373 58V29.125H888.373V58H890.373ZM889.476 30.1197L926.601 26.2696L926.395 24.2803L889.27 28.1303L889.476 30.1197ZM925.498 25.275V58H927.498V25.275H925.498ZM926.498 59H956.748V57H926.498V59ZM955.748 58V89.625H957.748V58H955.748ZM956.748 88.625H926.498V90.625H956.748V88.625ZM925.498 89.625V154.8H927.498V89.625H925.498ZM925.498 154.8C925.498 159.324 926.485 162.903 928.633 165.359C930.803 167.839 934.006 169 938.048 169V167C934.389 167 931.817 165.961 930.138 164.041C928.436 162.097 927.498 159.076 927.498 154.8H925.498ZM938.048 169H953.448V167H938.048V169ZM952.448 168V201H954.448V168H952.448ZM953.448 200H933.098V202H953.448V200ZM971.357 197.425L970.65 198.132L970.65 198.132L971.357 197.425ZM971.357 163.6L972.05 164.321L972.057 164.314L972.064 164.307L971.357 163.6ZM1006.28 163.6L1005.56 164.293L1005.57 164.307L1005.59 164.321L1006.28 163.6ZM1006.28 197.7L1006.99 198.407L1006.99 198.407L1006.28 197.7ZM988.957 203.575C982.246 203.575 976.637 201.29 972.064 196.718L970.65 198.132C975.611 203.093 981.735 205.575 988.957 205.575V203.575ZM972.064 196.718C967.481 192.134 965.207 186.703 965.207 180.375H963.207C963.207 187.247 965.7 193.182 970.65 198.132L972.064 196.718ZM965.207 180.375C965.207 174.048 967.479 168.716 972.05 164.321L970.664 162.879C965.702 167.651 963.207 173.502 963.207 180.375H965.207ZM972.064 164.307C976.637 159.735 982.246 157.45 988.957 157.45V155.45C981.735 155.45 975.611 157.932 970.65 162.893L972.064 164.307ZM988.957 157.45C995.668 157.45 1001.18 159.734 1005.56 164.293L1007 162.907C1002.22 157.933 996.18 155.45 988.957 155.45V157.45ZM1005.59 164.321C1010.16 168.716 1012.43 174.048 1012.43 180.375H1014.43C1014.43 173.502 1011.94 167.651 1006.98 162.879L1005.59 164.321ZM1012.43 180.375C1012.43 186.895 1010.15 192.415 1005.58 196.993L1006.99 198.407C1011.94 193.452 1014.43 187.422 1014.43 180.375H1012.43ZM1005.58 196.993C1001.19 201.374 995.681 203.575 988.957 203.575V205.575C996.167 205.575 1002.2 203.193 1006.99 198.407L1005.58 196.993ZM1054.72 194.675L1054.19 195.522L1054.2 195.529L1054.72 194.675ZM1028.87 167.45L1027.99 167.931L1028 167.942L1028.87 167.45ZM1028.87 92.65L1027.99 92.1643L1027.99 92.1692L1028.87 92.65ZM1054.72 65.15L1054.19 64.3028L1054.19 64.3028L1054.72 65.15ZM1118.52 61.575L1117.99 62.4267L1118 62.4325L1118.52 61.575ZM1135.57 80.55L1134.67 80.9892L1136.57 80.55H1135.57ZM1135.57 58V57H1134.57V58H1135.57ZM1172.42 58H1173.42V57H1172.42V58ZM1172.42 201V202H1173.42V201H1172.42ZM1136.39 201H1135.39V202H1136.39V201ZM1136.39 177.625H1137.39L1135.49 177.185L1136.39 177.625ZM1119.07 197.7L1119.61 198.542L1119.61 198.538L1119.07 197.7ZM1061.59 150.4L1060.7 150.857L1060.71 150.873L1060.72 150.888L1061.59 150.4ZM1075.62 165.525L1075.07 166.361L1075.08 166.371L1075.1 166.38L1075.62 165.525ZM1117.14 165.525L1116.63 164.663L1116.62 164.67L1117.14 165.525ZM1131.44 150.675L1130.56 150.207L1130.56 150.207L1131.44 150.675ZM1131.44 109.425L1130.55 109.882L1130.56 109.893L1131.44 109.425ZM1117.14 94.3L1116.6 95.1437L1116.62 95.1531L1116.63 95.1619L1117.14 94.3ZM1075.62 94.3L1076.13 95.1552L1076.14 95.1495L1076.15 95.1437L1075.62 94.3ZM1090.19 203.575C1077.54 203.575 1065.9 200.324 1055.24 193.821L1054.2 195.529C1065.17 202.226 1077.18 205.575 1090.19 205.575V203.575ZM1055.25 193.828C1044.58 187.135 1036.07 178.184 1029.74 166.958L1028 167.942C1034.49 179.45 1043.22 188.648 1054.19 195.522L1055.25 193.828ZM1029.74 166.969C1023.59 155.757 1020.52 143.457 1020.52 130.05H1018.52C1018.52 143.777 1021.67 156.41 1027.99 167.931L1029.74 166.969ZM1020.52 130.05C1020.52 116.643 1023.59 104.343 1029.74 93.1308L1027.99 92.1692C1021.67 103.69 1018.52 116.323 1018.52 130.05H1020.52ZM1029.74 93.1356C1036.08 81.7278 1044.58 72.6877 1055.25 65.9972L1054.19 64.3028C1043.22 71.179 1034.49 80.4722 1027.99 92.1644L1029.74 93.1356ZM1055.25 65.9972C1065.9 59.3142 1077.55 55.975 1090.19 55.975V53.975C1077.17 53.975 1065.16 57.4191 1054.19 64.3028L1055.25 65.9972ZM1090.19 55.975C1101.81 55.975 1111.05 58.1549 1117.99 62.4267L1119.04 60.7233C1111.68 56.1951 1102.04 53.975 1090.19 53.975V55.975ZM1118 62.4325C1125.16 66.7257 1130.71 72.8994 1134.67 80.9892L1136.46 80.1108C1132.35 71.7006 1126.54 65.2243 1119.03 60.7175L1118 62.4325ZM1136.57 80.55V58H1134.57V80.55H1136.57ZM1135.57 59H1172.42V57H1135.57V59ZM1171.42 58V201H1173.42V58H1171.42ZM1172.42 200H1136.39V202H1172.42V200ZM1137.39 201V177.625H1135.39V201H1137.39ZM1135.49 177.185C1131.35 185.656 1125.69 192.203 1118.52 196.862L1119.61 198.538C1127.11 193.664 1133 186.827 1137.29 178.065L1135.49 177.185ZM1118.53 196.858C1111.59 201.303 1102.18 203.575 1090.19 203.575V205.575C1102.41 205.575 1112.24 203.264 1119.61 198.542L1118.53 196.858ZM1055.64 129.775C1055.64 137.265 1057.33 144.297 1060.7 150.857L1062.48 149.943C1059.25 143.67 1057.64 136.952 1057.64 129.775H1055.64ZM1060.72 150.888C1064.28 157.259 1069.06 162.421 1075.07 166.361L1076.17 164.689C1070.44 160.929 1065.87 156.008 1062.46 149.912L1060.72 150.888ZM1075.1 166.38C1081.32 170.15 1088.38 172.025 1096.24 172.025V170.025C1088.71 170.025 1082.01 168.233 1076.13 164.67L1075.1 166.38ZM1096.24 172.025C1104.29 172.025 1111.44 170.152 1117.66 166.38L1116.62 164.67C1110.75 168.231 1103.96 170.025 1096.24 170.025V172.025ZM1117.65 166.387C1124.04 162.629 1128.94 157.544 1132.33 151.143L1130.56 150.207C1127.35 156.272 1122.71 161.088 1116.63 164.663L1117.65 166.387ZM1132.33 151.143C1135.71 144.756 1137.39 137.719 1137.39 130.05H1135.39C1135.39 137.415 1133.78 144.127 1130.56 150.207L1132.33 151.143ZM1137.39 130.05C1137.39 122.381 1135.71 115.344 1132.33 108.957L1130.56 109.893C1133.78 115.973 1135.39 122.685 1135.39 130.05H1137.39ZM1132.33 108.968C1128.94 102.382 1124.04 97.2005 1117.65 93.4381L1116.63 95.1619C1122.71 98.7329 1127.34 103.634 1130.55 109.882L1132.33 108.968ZM1117.68 93.4563C1111.45 89.4942 1104.3 87.525 1096.24 87.525V89.525C1103.95 89.525 1110.73 91.4058 1116.6 95.1437L1117.68 93.4563ZM1096.24 87.525C1088.37 87.525 1081.3 89.4966 1075.08 93.4563L1076.15 95.1437C1082.03 91.4033 1088.72 89.525 1096.24 89.525V87.525ZM1075.1 93.4448C1068.89 97.2049 1064.09 102.288 1060.71 108.682L1062.48 109.618C1065.69 103.545 1070.24 98.7285 1076.13 95.1552L1075.1 93.4448ZM1060.71 108.682C1057.33 115.069 1055.64 122.106 1055.64 129.775H1057.64C1057.64 122.41 1059.26 115.698 1062.48 109.618L1060.71 108.682ZM1194.47 58V57H1193.47V58H1194.47ZM1231.6 58H1232.6V57H1231.6V58ZM1231.6 201V202H1232.6V201H1231.6ZM1194.47 201H1193.47V202H1194.47V201ZM1196.95 8.77498L1196.26 8.053L1196.25 8.06035L1196.24 8.06788L1196.95 8.77498ZM1196.95 39.85L1196.23 40.5419L1196.24 40.5573L1196.26 40.572L1196.95 39.85ZM1194.47 59H1231.6V57H1194.47V59ZM1230.6 58V201H1232.6V58H1230.6ZM1231.6 200H1194.47V202H1231.6V200ZM1195.47 201V58H1193.47V201H1195.47ZM1191.62 24.175C1191.62 18.3859 1193.63 13.5082 1197.66 9.48209L1196.24 8.06788C1191.84 12.4751 1189.62 17.8641 1189.62 24.175H1191.62ZM1197.64 9.49697C1201.85 5.46319 1206.92 3.44998 1212.9 3.44998V1.44998C1206.41 1.44998 1200.85 3.65344 1196.26 8.053L1197.64 9.49697ZM1212.9 3.44998C1219.07 3.44998 1224.13 5.46816 1228.14 9.48209L1229.56 8.06788C1225.14 3.64848 1219.56 1.44998 1212.9 1.44998V3.44998ZM1228.14 9.48209C1232.17 13.5082 1234.17 18.3859 1234.17 24.175H1236.17C1236.17 17.8641 1233.96 12.4751 1229.56 8.06788L1228.14 9.48209ZM1234.17 24.175C1234.17 30.1565 1232.16 35.123 1228.14 39.1429L1229.56 40.5571C1233.97 36.1436 1236.17 30.6602 1236.17 24.175H1234.17ZM1228.14 39.1429C1224.13 43.1568 1219.07 45.175 1212.9 45.175V47.175C1219.56 47.175 1225.14 44.9765 1229.56 40.5571L1228.14 39.1429ZM1212.9 45.175C1206.92 45.175 1201.85 43.1618 1197.64 39.128L1196.26 40.572C1200.85 44.9715 1206.41 47.175 1212.9 47.175V45.175ZM1197.67 39.1581C1193.63 34.9427 1191.62 29.965 1191.62 24.175H1189.62C1189.62 30.485 1191.83 35.9573 1196.23 40.5419L1197.67 39.1581ZM1248.06 256H1247.06V257H1248.06V256ZM1248.06 226.575V225.575H1247.06V226.575H1248.06ZM1266.48 222.175L1267.17 222.903L1267.17 222.903L1266.48 222.175ZM1279.68 141.6L1278.93 140.946L1278.92 140.947L1279.68 141.6ZM1303.06 127.85L1303.29 128.821L1303.28 126.875L1303.06 127.85ZM1279.68 114.65L1278.92 115.292L1278.92 115.303L1278.93 115.314L1279.68 114.65ZM1266.48 34.075L1267.17 33.3468L1267.17 33.3468L1266.48 34.075ZM1248.06 29.675H1247.06V30.675H1248.06V29.675ZM1248.06 0.249995V-0.750005H1247.06V0.249995H1248.06ZM1296.46 12.075L1295.69 12.717L1295.7 12.7272L1296.46 12.075ZM1309.38 100.35L1308.51 100.836L1308.51 100.846L1308.52 100.857L1309.38 100.35ZM1318.18 107.225L1318.52 106.285L1318.52 106.285L1318.18 107.225ZM1336.06 110.25H1337.06V109.317L1336.13 109.252L1336.06 110.25ZM1336.06 146L1336.13 146.997L1337.06 146.931V146H1336.06ZM1318.46 149.025L1318.76 149.978L1318.78 149.972L1318.8 149.965L1318.46 149.025ZM1309.38 155.9L1308.53 155.379L1308.52 155.386L1308.52 155.393L1309.38 155.9ZM1296.46 244.175L1295.7 243.523L1295.69 243.533L1296.46 244.175ZM1249.06 256V226.575H1247.06V256H1249.06ZM1248.06 227.575H1253.28V225.575H1248.06V227.575ZM1253.28 227.575C1259.13 227.575 1263.81 226.062 1267.17 222.903L1265.8 221.447C1262.92 224.155 1258.8 225.575 1253.28 225.575V227.575ZM1267.17 222.903C1270.51 219.758 1272.16 215.633 1272.16 210.625H1270.16C1270.16 215.151 1268.69 218.725 1265.8 221.447L1267.17 222.903ZM1272.16 210.625V168.825H1270.16V210.625H1272.16ZM1272.16 168.825C1272.16 157.435 1274.96 148.619 1280.44 142.253L1278.92 140.947C1273.04 147.781 1270.16 157.115 1270.16 168.825H1272.16ZM1280.44 142.254C1286.15 135.646 1293.76 131.161 1303.29 128.821L1302.82 126.879C1292.92 129.306 1284.94 133.988 1278.93 140.946L1280.44 142.254ZM1303.28 126.875C1293.74 124.715 1286.14 120.41 1280.43 113.986L1278.93 115.314C1284.96 122.09 1292.94 126.585 1302.84 128.825L1303.28 126.875ZM1280.45 114.008C1274.96 107.453 1272.16 98.5379 1272.16 87.15H1270.16C1270.16 98.8621 1273.04 108.28 1278.92 115.292L1280.45 114.008ZM1272.16 87.15V45.625H1270.16V87.15H1272.16ZM1272.16 45.625C1272.16 40.6173 1270.51 36.4916 1267.17 33.3468L1265.8 34.8032C1268.69 37.525 1270.16 41.0994 1270.16 45.625H1272.16ZM1267.17 33.3468C1263.81 30.1879 1259.13 28.675 1253.28 28.675V30.675C1258.8 30.675 1262.92 32.0954 1265.8 34.8032L1267.17 33.3468ZM1253.28 28.675H1248.06V30.675H1253.28V28.675ZM1249.06 29.675V0.249995H1247.06V29.675H1249.06ZM1248.06 1.24999H1268.68V-0.750005H1248.06V1.24999ZM1268.68 1.24999C1280.35 1.24999 1289.31 5.09791 1295.69 12.7169L1297.22 11.4331C1290.4 3.28541 1280.84 -0.750005 1268.68 -0.750005V1.24999ZM1295.7 12.7272C1302.29 20.387 1305.63 30.5855 1305.63 43.425H1307.63C1307.63 30.2312 1304.19 19.5297 1297.21 11.4227L1295.7 12.7272ZM1305.63 43.425V86.05H1307.63V43.425H1305.63ZM1305.63 86.05C1305.63 92.3551 1306.55 97.32 1308.51 100.836L1310.26 99.8643C1308.54 96.78 1307.63 92.2116 1307.63 86.05H1305.63ZM1308.52 100.857C1310.49 104.21 1313.63 106.634 1317.84 108.165L1318.52 106.285C1314.67 104.882 1311.94 102.723 1310.24 99.843L1308.52 100.857ZM1317.84 108.165C1322.01 109.68 1328.07 110.696 1335.99 111.248L1336.13 109.252C1328.27 108.704 1322.42 107.704 1318.52 106.285L1317.84 108.165ZM1335.06 110.25V146H1337.06V110.25H1335.06ZM1335.99 145.003C1328.25 145.555 1322.28 146.571 1318.11 148.085L1318.8 149.965C1322.7 148.545 1328.46 147.545 1336.13 146.997L1335.99 145.003ZM1318.15 148.072C1313.91 149.421 1310.68 151.853 1308.53 155.379L1310.23 156.421C1312.11 153.347 1314.93 151.196 1318.76 149.978L1318.15 148.072ZM1308.52 155.393C1306.55 158.741 1305.63 163.724 1305.63 170.2H1307.63C1307.63 163.842 1308.55 159.292 1310.24 156.407L1308.52 155.393ZM1305.63 170.2V212.825H1307.63V170.2H1305.63ZM1305.63 212.825C1305.63 225.664 1302.29 235.863 1295.7 243.523L1297.21 244.827C1304.19 236.72 1307.63 226.019 1307.63 212.825H1305.63ZM1295.69 243.533C1289.31 251.152 1280.35 255 1268.68 255V257C1280.84 257 1290.4 252.965 1297.22 244.817L1295.69 243.533ZM1268.68 255H1248.06V257H1268.68V255Z" fill="url(#paint0_angular_26_22)"/>
</g>
<defs>
<filter id="filter0_d_26_22" x="0.875" y="0.25" width="1338.18" height="262.75" filterUnits="userSpaceOnUse" color-interpolation-filters="sRGB">
<feFlood flood-opacity="0" result="BackgroundImageFix"/>
<feColorMatrix in="SourceAlpha" type="matrix" values="0 0 0 0 0 0 0 0 0 0 0 0 0 0 0 0 0 0 127 0" result="hardAlpha"/>
<feOffset dy="4"/>
<feGaussianBlur stdDeviation="1.5"/>
<feComposite in2="hardAlpha" operator="out"/>
<feColorMatrix type="matrix" values="0 0 0 0 0 0 0 0 0 0 0 0 0 0 0 0 0 0 0.25 0"/>
<feBlend mode="normal" in2="BackgroundImageFix" result="effect1_dropShadow_26_22"/>
<feBlend mode="normal" in="SourceGraphic" in2="effect1_dropShadow_26_22" result="shape"/>
</filter>
<radialGradient id="paint0_angular_26_22" cx="0" cy="0" r="1" gradientUnits="userSpaceOnUse" gradientTransform="translate(680.5 125) rotate(90) scale(199 683.5)">
<stop stop-color="#FFC0D5"/>
<stop offset="0.484375" stop-color="#FCF4EC"/>
<stop offset="1" stop-color="#E3C0FF"/>
</radialGradient>
</defs>
</svg>